<svg width="12" height="12" viewBox="0 0 12 12" fill="none" xmlns="http://www.w3.org/2000/svg">
<g id="icon/alarm_add">
<path id="Vector" d="M8.75137 1.26709L10.9109 3.06943L10.3109 3.78896L8.14996 1.98756L8.75137 1.26709ZM3.74793 1.26709L4.34887 1.98709L2.18887 3.78896L1.58887 3.06896L3.74793 1.26709ZM6.24965 2.29365C3.91996 2.29365 2.0309 4.18272 2.0309 6.5124C2.0309 8.84209 3.91996 10.7312 6.24965 10.7312C8.57934 10.7312 10.4684 8.84209 10.4684 6.5124C10.4684 4.18272 8.57934 2.29365 6.24965 2.29365ZM6.24965 9.79365C4.44027 9.79365 2.9684 8.32178 2.9684 6.5124C2.9684 4.70303 4.44027 3.23115 6.24965 3.23115C8.05902 3.23115 9.5309 4.70303 9.5309 6.5124C9.5309 8.32178 8.05902 9.79365 6.24965 9.79365ZM6.7184 4.6374H5.7809V6.04365H4.37465V6.98115H5.7809V8.3874H6.7184V6.98115H8.12465V6.04365H6.7184V4.6374Z" fill="#FFFFF0"/>
</g>
</svg>
