<svg width="476" height="476" viewBox="0 0 476 476" fill="none" xmlns="http://www.w3.org/2000/svg">
<path d="M61.126 122.124C61.126 118.016 64.4559 114.687 68.5635 114.687H425.791C429.899 114.687 433.229 118.016 433.229 122.124V352.537C433.229 356.644 429.899 359.974 425.791 359.974H68.5635C64.4559 359.974 61.126 356.644 61.126 352.537V122.124Z" fill="#3825C2"/>
<path d="M42.7715 103.129C42.7715 99.0213 46.1014 95.6914 50.209 95.6914H407.437C411.545 95.6914 414.874 99.0213 414.874 103.129V333.542C414.874 337.649 411.545 340.979 407.437 340.979H50.209C46.1014 340.979 42.7715 337.649 42.7715 333.542V103.129Z" fill="#23FFCA"/>
<path fill-rule="evenodd" clip-rule="evenodd" d="M50.209 88.254H407.437C415.652 88.254 422.312 94.9138 422.312 103.129V333.542C422.312 341.757 415.652 348.417 407.437 348.417H50.209C41.9938 348.417 35.334 341.757 35.334 333.542V103.129C35.334 94.9138 41.9937 88.254 50.209 88.254ZM50.209 95.6915C46.1014 95.6915 42.7715 99.0214 42.7715 103.129V333.542C42.7715 337.649 46.1014 340.979 50.209 340.979H407.437C411.545 340.979 414.874 337.649 414.874 333.542V103.129C414.874 99.0214 411.545 95.6915 407.437 95.6915H50.209Z" fill="#3825C2"/>
<path fill-rule="evenodd" clip-rule="evenodd" d="M99.958 184.271C99.958 182.217 101.623 180.552 103.677 180.552H353.97C356.024 180.552 357.689 182.217 357.689 184.271C357.689 186.325 356.024 187.99 353.97 187.99H103.677C101.623 187.99 99.958 186.325 99.958 184.271Z" fill="#3825C2"/>
<path fill-rule="evenodd" clip-rule="evenodd" d="M176.714 142.413C176.714 140.359 178.379 138.694 180.433 138.694H270.538C272.592 138.694 274.257 140.359 274.257 142.413C274.257 144.467 272.592 146.132 270.538 146.132H180.433C178.379 146.132 176.714 144.467 176.714 142.413Z" fill="#3825C2"/>
<path fill-rule="evenodd" clip-rule="evenodd" d="M99.958 203.461C99.958 201.407 101.623 199.742 103.677 199.742H353.97C356.024 199.742 357.689 201.407 357.689 203.461C357.689 205.514 356.024 207.179 353.97 207.179H103.677C101.623 207.179 99.958 205.514 99.958 203.461Z" fill="#3825C2"/>
<path fill-rule="evenodd" clip-rule="evenodd" d="M99.958 226.058C99.958 224.004 101.623 222.339 103.677 222.339H353.97C356.024 222.339 357.689 224.004 357.689 226.058C357.689 228.112 356.024 229.777 353.97 229.777H103.677C101.623 229.777 99.958 228.112 99.958 226.058Z" fill="#3825C2"/>
<path fill-rule="evenodd" clip-rule="evenodd" d="M99.958 248.585C99.958 246.531 101.623 244.866 103.677 244.866H353.97C356.024 244.866 357.689 246.531 357.689 248.585C357.689 250.639 356.024 252.304 353.97 252.304H103.677C101.623 252.304 99.958 250.639 99.958 248.585Z" fill="#3825C2"/>
<path fill-rule="evenodd" clip-rule="evenodd" d="M99.958 269.441C99.958 267.387 101.623 265.722 103.677 265.722H220.48C222.534 265.722 224.199 267.387 224.199 269.441C224.199 271.495 222.534 273.16 220.48 273.16H103.677C101.623 273.16 99.958 271.495 99.958 269.441Z" fill="#3825C2"/>
<path d="M332.656 298.234H372.703V369.151L352.68 349.127L332.656 369.151V298.234Z" fill="#23FFCA"/>
<path fill-rule="evenodd" clip-rule="evenodd" d="M325.219 298.234C325.219 294.127 328.549 290.797 332.656 290.797H372.703C376.811 290.797 380.141 294.127 380.141 298.234V369.151C380.141 372.159 378.329 374.871 375.549 376.022C372.77 377.173 369.571 376.537 367.444 374.41L352.68 359.646L337.915 374.41C335.788 376.537 332.589 377.173 329.81 376.022C327.031 374.871 325.219 372.159 325.219 369.151V298.234ZM352.68 349.127L372.703 369.151V298.234H332.656V369.151L352.68 349.127Z" fill="#3825C2"/>
<path d="M386.508 300.515C386.508 318.715 371.94 333.47 353.97 333.47C335.999 333.47 321.432 318.715 321.432 300.515C321.432 282.314 335.999 267.559 353.97 267.559C371.94 267.559 386.508 282.314 386.508 300.515Z" fill="#23FFCA"/>
<path fill-rule="evenodd" clip-rule="evenodd" d="M393.945 300.515C393.945 322.733 376.137 340.907 353.97 340.907C331.803 340.907 313.994 322.733 313.994 300.515C313.994 278.296 331.803 260.122 353.97 260.122C376.137 260.122 393.945 278.296 393.945 300.515ZM353.97 333.47C371.94 333.47 386.508 318.715 386.508 300.515C386.508 282.314 371.94 267.559 353.97 267.559C335.999 267.559 321.432 282.314 321.432 300.515C321.432 318.715 335.999 333.47 353.97 333.47Z" fill="#3825C2"/>
<path fill-rule="evenodd" clip-rule="evenodd" d="M378.785 300.514C378.785 314.251 367.765 325.55 353.972 325.55C340.179 325.55 329.159 314.251 329.159 300.514C329.159 286.777 340.179 275.478 353.972 275.478C367.765 275.478 378.785 286.777 378.785 300.514ZM353.972 318.112C363.568 318.112 371.348 310.233 371.348 300.514C371.348 290.795 363.568 282.916 353.972 282.916C344.376 282.916 336.597 290.795 336.597 300.514C336.597 310.233 344.376 318.112 353.972 318.112Z" fill="#3825C2"/>
</svg>
