<svg width="189" height="206" viewBox="0 0 189 206" fill="none" xmlns="http://www.w3.org/2000/svg">
<path id="Rectangle 86 (Stroke)" fill-rule="evenodd" clip-rule="evenodd" d="M0.265625 44.83C0.265625 20.4417 20.0362 0.671143 44.4245 0.671143H144.365C168.754 0.671143 188.524 20.4418 188.524 44.83V161.75C188.524 186.138 168.754 205.909 144.365 205.909H143.167C141.291 205.909 139.771 204.388 139.771 202.512C139.771 200.636 141.291 199.115 143.167 199.115H144.365C165.002 199.115 181.73 182.386 181.73 161.75V44.83C181.73 24.1938 165.002 7.46482 144.365 7.46482H44.4245C23.7883 7.46482 7.0593 24.1938 7.0593 44.83V161.75C7.0593 182.386 23.7883 199.115 44.4245 199.115H105.267C107.143 199.115 108.664 200.636 108.664 202.512C108.664 204.388 107.143 205.909 105.267 205.909H44.4245C20.0362 205.909 0.265625 186.138 0.265625 161.75V44.83Z" fill="#3825C2"/>
</svg>
