<svg width="192" height="231" viewBox="0 0 192 231" fill="none" xmlns="http://www.w3.org/2000/svg">
<path id="Union (Stroke)" fill-rule="evenodd" clip-rule="evenodd" d="M88.5458 180.304H136.752C163.016 180.304 184.308 159.013 184.308 132.749V54.6887C184.308 28.4244 163.016 7.13303 136.752 7.13303H54.665C28.4007 7.13303 7.1093 28.4244 7.1093 54.6887V132.749C7.1093 158.597 27.7318 179.629 53.4213 180.288V223.661L88.5458 180.304ZM46.6276 186.508C20.421 182.622 0.315633 160.034 0.315633 132.749V54.6887C0.315633 24.6724 24.6487 0.339355 54.665 0.339355H136.752C166.769 0.339355 191.102 24.6724 191.102 54.6887V132.749C191.102 162.765 166.769 187.098 136.752 187.098H91.7854L58.7001 227.938C56.8887 230.174 53.8652 231.026 51.1528 230.065C48.4404 229.104 46.6276 226.539 46.6276 223.661V186.508Z" fill="#3825C2"/>
</svg>
