<svg width="110" height="74" viewBox="0 0 110 74" fill="none" xmlns="http://www.w3.org/2000/svg">
<g id="Vector">
<path fill-rule="evenodd" clip-rule="evenodd" d="M0.548828 38.1567C0.548828 35.3427 2.83005 33.0614 5.64408 33.0614H47.5665C50.3806 33.0614 52.6618 35.3427 52.6618 38.1567C52.6618 40.9707 50.3806 43.2519 47.5665 43.2519H5.64408C2.83005 43.2519 0.548828 40.9707 0.548828 38.1567Z" fill="#3825C2"/>
<path fill-rule="evenodd" clip-rule="evenodd" d="M0.548828 5.93803C0.548828 3.124 2.83005 0.842773 5.64408 0.842773H104.429C107.243 0.842773 109.524 3.124 109.524 5.93803C109.524 8.75206 107.243 11.0333 104.429 11.0333H5.64408C2.83005 11.0333 0.548828 8.75206 0.548828 5.93803Z" fill="#3825C2"/>
<path fill-rule="evenodd" clip-rule="evenodd" d="M0.548828 68.3608C0.548828 65.5468 2.83005 63.2656 5.64408 63.2656H23.085C25.899 63.2656 28.1802 65.5468 28.1802 68.3608C28.1802 71.1748 25.899 73.4561 23.085 73.4561H5.64408C2.83005 73.4561 0.548828 71.1748 0.548828 68.3608Z" fill="#3825C2"/>
</g>
</svg>
