<svg width="127" height="117" viewBox="0 0 127 117" fill="none" xmlns="http://www.w3.org/2000/svg">
<g id="Vector">
<path fill-rule="evenodd" clip-rule="evenodd" d="M0.805321 76.7347C0.805321 72.9827 3.84695 69.9411 7.59899 69.9411H119.735C123.487 69.9411 126.529 72.9827 126.529 76.7347C126.529 80.4868 123.487 83.5284 119.735 83.5284H7.59899C3.84695 83.5284 0.805321 80.4868 0.805321 76.7347Z" fill="#3825C2"/>
<path fill-rule="evenodd" clip-rule="evenodd" d="M0.805321 41.4334C0.805321 37.6814 3.84695 34.6398 7.59899 34.6398H119.735C123.487 34.6398 126.529 37.6814 126.529 41.4334C126.529 45.1855 123.487 48.2271 119.735 48.2271H7.59899C3.84695 48.2271 0.805321 45.1855 0.805321 41.4334Z" fill="#3825C2"/>
<path fill-rule="evenodd" clip-rule="evenodd" d="M0.804688 7.46897C0.804688 3.71692 3.84632 0.675293 7.59836 0.675293H119.735C123.487 0.675293 126.528 3.71692 126.528 7.46897C126.528 11.221 123.487 14.2626 119.735 14.2626H7.59836C3.84632 14.2626 0.804688 11.221 0.804688 7.46897Z" fill="#3825C2"/>
<path fill-rule="evenodd" clip-rule="evenodd" d="M0.805321 109.825C0.805321 106.073 3.84695 103.032 7.59899 103.032H68.473C72.225 103.032 75.2667 106.073 75.2667 109.825C75.2667 113.577 72.225 116.619 68.473 116.619H7.59899C3.84695 116.619 0.805321 113.577 0.805321 109.825Z" fill="#3825C2"/>
</g>
</svg>
