<svg width="24" height="25" viewBox="0 0 24 25" fill="none" xmlns="http://www.w3.org/2000/svg">
<path d="M19 4.875H18V2.875H16V4.875H8V2.875H6V4.875H5C3.89 4.875 3.01 5.775 3.01 6.875L3 20.875C3 21.975 3.89 22.875 5 22.875H19C20.1 22.875 21 21.975 21 20.875V6.875C21 5.775 20.1 4.875 19 4.875ZM19 20.875H5V10.875H19V20.875ZM19 8.875H5V6.875H19V8.875ZM9 14.875H7V12.875H9V14.875ZM13 14.875H11V12.875H13V14.875ZM17 14.875H15V12.875H17V14.875ZM9 18.875H7V16.875H9V18.875ZM13 18.875H11V16.875H13V18.875ZM17 18.875H15V16.875H17V18.875Z" fill="#121212"/>
<path d="M19 4.875H18V2.875H16V4.875H8V2.875H6V4.875H5C3.89 4.875 3.01 5.775 3.01 6.875L3 20.875C3 21.975 3.89 22.875 5 22.875H19C20.1 22.875 21 21.975 21 20.875V6.875C21 5.775 20.1 4.875 19 4.875ZM19 20.875H5V10.875H19V20.875ZM19 8.875H5V6.875H19V8.875ZM9 14.875H7V12.875H9V14.875ZM13 14.875H11V12.875H13V14.875ZM17 14.875H15V12.875H17V14.875ZM9 18.875H7V16.875H9V18.875ZM13 18.875H11V16.875H13V18.875ZM17 18.875H15V16.875H17V18.875Z" fill="black" fill-opacity="0.2"/>
</svg>
