<svg width="297" height="297" viewBox="0 0 297 297" fill="none" xmlns="http://www.w3.org/2000/svg">
<g filter="url(#filter0_dd_1434_3555)">
<path fill-rule="evenodd" clip-rule="evenodd" d="M148.5 237.5C199.862 237.5 241.5 195.862 241.5 144.5H285.5C285.5 162.491 281.956 180.306 275.072 196.928C268.187 213.549 258.095 228.652 245.374 241.374C232.652 254.095 217.549 264.187 200.928 271.071C184.306 277.956 166.491 281.5 148.5 281.5L148.5 237.5Z" fill="#23FFCA"/>
<path fill-rule="evenodd" clip-rule="evenodd" d="M55.5 144.5L11.5 144.5C11.5 162.491 15.0436 180.306 21.9285 196.928C28.8134 213.549 38.9047 228.652 51.6264 241.374C64.348 254.095 79.4508 264.187 96.0724 271.072C112.694 277.956 130.509 281.5 148.5 281.5V237.5C97.1375 237.5 55.5 195.862 55.5 144.5Z" fill="#FB6816"/>
<path fill-rule="evenodd" clip-rule="evenodd" d="M245.374 47.6264C271.066 73.3189 285.5 108.165 285.5 144.5H241.5C241.5 93.1375 199.862 51.5 148.5 51.5C97.1375 51.5 55.5 93.1375 55.5 144.5L11.5 144.5C11.5 108.165 25.9339 73.3188 51.6264 47.6264C77.3189 21.9339 112.165 7.5 148.5 7.5C184.835 7.5 219.681 21.9339 245.374 47.6264Z" fill="#4C37EE"/>
</g>
<defs>
<filter id="filter0_dd_1434_3555" x="0.5" y="0.5" width="296" height="296" filterUnits="userSpaceOnUse" color-interpolation-filters="sRGB">
<feFlood flood-opacity="0" result="BackgroundImageFix"/>
<feColorMatrix in="SourceAlpha" type="matrix" values="0 0 0 0 0 0 0 0 0 0 0 0 0 0 0 0 0 0 127 0" result="hardAlpha"/>
<feOffset dy="1"/>
<feGaussianBlur stdDeviation="1.5"/>
<feColorMatrix type="matrix" values="0 0 0 0 0 0 0 0 0 0 0 0 0 0 0 0 0 0 0.3 0"/>
<feBlend mode="normal" in2="BackgroundImageFix" result="effect1_dropShadow_1434_3555"/>
<feColorMatrix in="SourceAlpha" type="matrix" values="0 0 0 0 0 0 0 0 0 0 0 0 0 0 0 0 0 0 127 0" result="hardAlpha"/>
<feMorphology radius="3" operator="dilate" in="SourceAlpha" result="effect2_dropShadow_1434_3555"/>
<feOffset dy="4"/>
<feGaussianBlur stdDeviation="4"/>
<feColorMatrix type="matrix" values="0 0 0 0 0 0 0 0 0 0 0 0 0 0 0 0 0 0 0.15 0"/>
<feBlend mode="normal" in2="effect1_dropShadow_1434_3555" result="effect2_dropShadow_1434_3555"/>
<feBlend mode="normal" in="SourceGraphic" in2="effect2_dropShadow_1434_3555" result="shape"/>
</filter>
</defs>
</svg>
