<svg width="112" height="97" viewBox="0 0 112 97" fill="none" xmlns="http://www.w3.org/2000/svg">
<g id="Group 1069">
<path id="Union" d="M49.1865 31.6373C57.0644 31.6373 63.4506 38.0235 63.4506 45.9014V70.8526C63.4506 78.7304 57.0644 85.1167 49.1865 85.1167H33.8773L24.8943 96.2051C24.2721 96.9731 23.0301 96.5331 23.0301 95.5448V85.1167H22.9916C15.1138 85.1167 8.72754 78.7304 8.72754 70.8526V45.9014C8.72754 38.0235 15.1138 31.6373 22.9917 31.6373H49.1865Z" fill="#3825C2"/>
<path id="Union_2" d="M64.8129 7.61011C56.9351 7.61011 50.5488 13.9964 50.5488 21.8742V60.5062C50.5488 68.384 56.9351 74.7703 64.8129 74.7703H83.452L95.324 89.4247C95.9462 90.1927 97.1881 89.7528 97.1881 88.7644V74.7703H97.2264C105.104 74.7703 111.49 68.384 111.49 60.5062V21.8742C111.49 13.9964 105.104 7.61011 97.2264 7.61011H64.8129Z" fill="#3825C2"/>
<path id="Union_3" fill-rule="evenodd" clip-rule="evenodd" d="M42.6442 27.5413C50.7553 27.5413 57.3306 34.1166 57.3306 42.2276V66.3344C57.3306 74.4454 50.7553 81.0207 42.6442 81.0207H27.757L16.9097 94.4103V81.0158C8.97619 80.8121 2.60747 74.317 2.60747 66.3344V42.2276C2.60747 34.1166 9.18276 27.5413 17.2938 27.5413H42.6442Z" fill="#23FFCA"/>
<path id="Union (Stroke)" fill-rule="evenodd" clip-rule="evenodd" d="M27.7571 81.0207H42.6443C50.7554 81.0207 57.3307 74.4454 57.3307 66.3344V42.2276C57.3307 34.1166 50.7554 27.5413 42.6443 27.5413H17.2939C9.18286 27.5413 2.60757 34.1166 2.60757 42.2276V66.3344C2.60757 74.317 8.97629 80.8121 16.9098 81.0158V94.4103L27.7571 81.0207ZM14.8117 82.9364C6.71855 81.7364 0.509522 74.7608 0.509522 66.3344V42.2276C0.509522 32.9579 8.02414 25.4432 17.2939 25.4432H42.6443C51.9141 25.4432 59.4287 32.9578 59.4287 42.2276V66.3344C59.4287 75.6041 51.9141 83.1187 42.6443 83.1187H28.7575L18.54 95.731C17.9806 96.4215 17.0469 96.6847 16.2092 96.3879C15.3716 96.0912 14.8117 95.2989 14.8117 94.4103V82.9364Z" fill="#3825C2"/>
<path id="Rectangle 85 (Stroke)" fill-rule="evenodd" clip-rule="evenodd" d="M3.75195 42.6156C3.75195 35.084 9.85758 28.9783 17.3892 28.9783H42.5477C50.0794 28.9783 56.185 35.084 56.185 42.6156V66.1376C56.185 73.6693 50.0794 79.7749 42.5477 79.7749H27.5171C26.9378 79.7749 26.4681 79.3053 26.4681 78.7259C26.4681 78.1466 26.9378 77.6769 27.5171 77.6769H42.5477C48.9207 77.6769 54.087 72.5106 54.087 66.1376V42.6156C54.087 36.2427 48.9207 31.0764 42.5477 31.0764H17.3892C11.0163 31.0764 5.85 36.2427 5.85 42.6156V66.1376C5.85 72.5106 11.0163 77.6769 17.3893 77.6769H18.4159C18.9953 77.6769 19.4649 78.1466 19.4649 78.7259C19.4649 79.3053 18.9953 79.7749 18.4159 79.7749H17.3893C9.85758 79.7749 3.75195 73.6693 3.75195 66.1376V42.6156Z" fill="#3825C2"/>
<g id="Vector">
<path fill-rule="evenodd" clip-rule="evenodd" d="M11.0811 50.0928C11.0811 49.2237 11.7856 48.5192 12.6546 48.5192H25.6012C26.4703 48.5192 27.1748 49.2237 27.1748 50.0928C27.1748 50.9618 26.4703 51.6663 25.6012 51.6663H12.6546C11.7856 51.6663 11.0811 50.9618 11.0811 50.0928Z" fill="#3825C2"/>
<path fill-rule="evenodd" clip-rule="evenodd" d="M11.0811 40.1429C11.0811 39.2738 11.7856 38.5693 12.6546 38.5693H43.1617C44.0307 38.5693 44.7352 39.2738 44.7352 40.1429C44.7352 41.0119 44.0307 41.7164 43.1617 41.7164H12.6546C11.7856 41.7164 11.0811 41.0119 11.0811 40.1429Z" fill="#3825C2"/>
<path fill-rule="evenodd" clip-rule="evenodd" d="M11.0811 59.4205C11.0811 58.5515 11.7856 57.847 12.6546 57.847H18.0407C18.9098 57.847 19.6143 58.5515 19.6143 59.4205C19.6143 60.2895 18.9098 60.994 18.0407 60.994H12.6546C11.7856 60.994 11.0811 60.2895 11.0811 59.4205Z" fill="#3825C2"/>
</g>
<path id="Union_4" fill-rule="evenodd" clip-rule="evenodd" d="M57.0911 2.50214C48.9801 2.50214 42.4048 9.07743 42.4048 17.1885V54.976C42.4048 63.087 48.9801 69.6623 57.0911 69.6623H75.3084L89.0445 86.6178V69.6574C96.9778 69.4536 103.346 62.9585 103.346 54.976V17.1885C103.346 9.07743 96.7711 2.50214 88.6601 2.50214H57.0911Z" fill="#23FFCA"/>
<path id="Union (Stroke)_2" fill-rule="evenodd" clip-rule="evenodd" d="M75.3083 69.6623H57.091C48.98 69.6623 42.4047 63.087 42.4047 54.976V17.1885C42.4047 9.07746 48.98 2.50216 57.091 2.50216H88.66C96.771 2.50216 103.346 9.07745 103.346 17.1885V54.976C103.346 62.9585 96.9777 69.4536 89.0444 69.6574V86.6178L75.3083 69.6623ZM91.1424 71.578C99.2355 70.3779 105.444 63.4023 105.444 54.976V17.1885C105.444 7.91873 97.9298 0.404114 88.66 0.404114H57.091C47.8213 0.404114 40.3066 7.91874 40.3066 17.1885V54.976C40.3066 64.2458 47.8212 71.7604 57.091 71.7604H74.3079L87.4142 87.9385C87.9735 88.629 88.9073 88.8921 89.7449 88.5954C90.5826 88.2987 91.1424 87.5064 91.1424 86.6178V71.578Z" fill="#3825C2"/>
<path id="Rectangle 86 (Stroke)" fill-rule="evenodd" clip-rule="evenodd" d="M43.729 17.8741C43.729 10.3424 49.8346 4.23682 57.3663 4.23682H88.2304C95.762 4.23682 101.868 10.3424 101.868 17.8741V53.9818C101.868 61.5134 95.762 67.619 88.2304 67.619H87.8604C87.2811 67.619 86.8114 67.1494 86.8114 66.57C86.8114 65.9907 87.2811 65.521 87.8604 65.521H88.2304C94.6033 65.521 99.7696 60.3547 99.7696 53.9818V17.8741C99.7696 11.5012 94.6033 6.33486 88.2304 6.33486H57.3663C50.9933 6.33486 45.827 11.5012 45.827 17.8741V53.9817C45.827 60.3547 50.9934 65.521 57.3663 65.521H76.1559C76.7353 65.521 77.205 65.9907 77.205 66.57C77.205 67.1494 76.7353 67.619 76.1559 67.619H57.3663C49.8346 67.619 43.729 61.5134 43.729 53.9817V17.8741Z" fill="#3825C2"/>
<g id="Vector_2">
<path fill-rule="evenodd" clip-rule="evenodd" d="M53.4694 39.1536C53.4694 37.9948 54.4088 37.0555 55.5675 37.0555H90.1978C91.3565 37.0555 92.2959 37.9948 92.2959 39.1536C92.2959 40.3123 91.3565 41.2516 90.1978 41.2516H55.5675C54.4088 41.2516 53.4694 40.3123 53.4694 39.1536Z" fill="#3825C2"/>
<path fill-rule="evenodd" clip-rule="evenodd" d="M53.4694 28.2517C53.4694 27.093 54.4088 26.1536 55.5675 26.1536H90.1978C91.3565 26.1536 92.2959 27.093 92.2959 28.2517C92.2959 29.4104 91.3565 30.3497 90.1978 30.3497H55.5675C54.4088 30.3497 53.4694 29.4104 53.4694 28.2517Z" fill="#3825C2"/>
<path fill-rule="evenodd" clip-rule="evenodd" d="M53.4692 17.7627C53.4692 16.6039 54.4086 15.6646 55.5673 15.6646H90.1976C91.3563 15.6646 92.2957 16.6039 92.2957 17.7627C92.2957 18.9214 91.3563 19.8607 90.1976 19.8607H55.5673C54.4086 19.8607 53.4692 18.9214 53.4692 17.7627Z" fill="#3825C2"/>
<path fill-rule="evenodd" clip-rule="evenodd" d="M53.4694 49.3727C53.4694 48.214 54.4088 47.2747 55.5675 47.2747H74.3668C75.5255 47.2747 76.4649 48.214 76.4649 49.3727C76.4649 50.5315 75.5255 51.4708 74.3668 51.4708H55.5675C54.4088 51.4708 53.4694 50.5315 53.4694 49.3727Z" fill="#3825C2"/>
</g>
</g>
</svg>
