<svg width="96" height="115" viewBox="0 0 96 115" fill="none" xmlns="http://www.w3.org/2000/svg">
<g id="Group 1036">
<path id="Rectangle 68" d="M0.445312 105.465C0.445312 103.786 1.8062 102.426 3.48494 102.426H92.5147C94.1934 102.426 95.5543 103.786 95.5543 105.465C95.5543 107.144 94.1934 108.505 92.5147 108.505H3.48494C1.8062 108.505 0.445312 107.144 0.445312 105.465Z" fill="#3825C2"/>
<path id="Rectangle 63" d="M0.445312 8.19728C0.445312 6.51854 1.8062 5.15765 3.48494 5.15765H92.5147C94.1934 5.15765 95.5543 6.51854 95.5543 8.19728C95.5543 9.87602 94.1934 11.2369 92.5147 11.2369H3.48494C1.8062 11.2369 0.445312 9.87602 0.445312 8.19728Z" fill="#3825C2"/>
<path id="Rectangle 61" d="M11.7676 16.5467C11.7676 11.9101 15.5262 8.15149 20.1628 8.15149H75.6824C80.319 8.15149 84.0776 11.9101 84.0776 16.5467V97.4136C84.0776 102.05 80.319 105.809 75.6824 105.809H20.1628C15.5262 105.809 11.7676 102.05 11.7676 97.4135V16.5467Z" fill="#23FFCA"/>
<path id="Rectangle 61 (Stroke)" fill-rule="evenodd" clip-rule="evenodd" d="M20.1629 6.05267H75.6826C81.4783 6.05267 86.1766 10.751 86.1766 16.5467V97.4135C86.1766 103.209 81.4783 107.908 75.6826 107.908H20.1629C14.3673 107.908 9.66895 103.209 9.66895 97.4135V16.5466C9.66895 10.751 14.3673 6.05267 20.1629 6.05267ZM20.1629 8.15147C15.5264 8.15147 11.7677 11.9101 11.7677 16.5466V97.4135C11.7677 102.05 15.5264 105.809 20.1629 105.809H75.6826C80.3191 105.809 84.0778 102.05 84.0778 97.4135V16.5467C84.0778 11.9101 80.3191 8.15147 75.6826 8.15147H20.1629Z" fill="#3825C2"/>
<path id="Rectangle 67" d="M11.7676 93.9601H84.0776V97.6273H11.7676V93.9601Z" fill="#3825C2"/>
<path id="Rectangle 60" d="M4.94971 8.67005C4.94971 5.19265 7.7687 2.37366 11.2461 2.37366H84.599C88.0764 2.37366 90.8954 5.19265 90.8954 8.67005V9.25844C90.8954 12.7358 88.0764 15.5548 84.599 15.5548H11.2461C7.76869 15.5548 4.94971 12.7358 4.94971 9.25844V8.67005Z" fill="#23FFCA"/>
<path id="Rectangle 60 (Stroke)" fill-rule="evenodd" clip-rule="evenodd" d="M11.2463 0.274841H84.5992C89.2357 0.274841 92.9944 4.0335 92.9944 8.67002V9.25842C92.9944 13.895 89.2357 17.6536 84.5992 17.6536H11.2462C6.60971 17.6536 2.85107 13.895 2.85107 9.25842V8.67002C2.85107 4.03349 6.60973 0.274841 11.2463 0.274841ZM11.2463 2.37364C7.76886 2.37364 4.94987 5.19263 4.94987 8.67002V9.25842C4.94987 12.7358 7.76885 15.5548 11.2462 15.5548H84.5992C88.0766 15.5548 90.8956 12.7358 90.8956 9.25842V8.67002C90.8956 5.19263 88.0766 2.37364 84.5992 2.37364H11.2463Z" fill="#3825C2"/>
<path id="Vector 796 (Stroke)" fill-rule="evenodd" clip-rule="evenodd" d="M67.4609 5.6689C67.4609 5.08934 67.9308 4.61951 68.5103 4.61951H86.9185C87.4981 4.61951 87.9679 5.08934 87.9679 5.6689C87.9679 6.24847 87.4981 6.7183 86.9185 6.7183H68.5103C67.9308 6.7183 67.4609 6.24847 67.4609 5.6689Z" fill="#3825C2"/>
<path id="Rectangle 64" d="M10.4037 15.5547H85.4409C87.4371 15.5547 89.1829 14.4823 90.1335 12.8822L5.76709 12.9743C6.72925 14.5233 8.44603 15.5547 10.4037 15.5547Z" fill="#3825C2"/>
<path id="Rectangle 62" d="M4.94971 105.029C4.94971 101.551 7.7687 98.7325 11.2461 98.7325H84.599C88.0764 98.7325 90.8954 101.551 90.8954 105.029V106.33C90.8954 109.808 88.0764 112.627 84.599 112.627H11.2461C7.76869 112.627 4.94971 109.808 4.94971 106.33V105.029Z" fill="#23FFCA"/>
<path id="Rectangle 62 (Stroke)" fill-rule="evenodd" clip-rule="evenodd" d="M11.2463 96.6337H84.5992C89.2357 96.6337 92.9944 100.392 92.9944 105.029V106.33C92.9944 110.967 89.2357 114.725 84.5992 114.725H11.2462C6.60972 114.725 2.85107 110.967 2.85107 106.33V105.029C2.85107 100.392 6.60972 96.6337 11.2463 96.6337ZM11.2463 98.7325C7.76886 98.7325 4.94987 101.551 4.94987 105.029V106.33C4.94987 109.808 7.76885 112.626 11.2462 112.626H84.5992C88.0766 112.626 90.8956 109.808 90.8956 106.33V105.029C90.8956 101.551 88.0766 98.7325 84.5992 98.7325H11.2463Z" fill="#3825C2"/>
<path id="Vector 794 (Stroke)" fill-rule="evenodd" clip-rule="evenodd" d="M7.46387 102.937C7.46387 102.357 7.9337 101.887 8.51326 101.887H34.1938C34.7734 101.887 35.2432 102.357 35.2432 102.937C35.2432 103.516 34.7734 103.986 34.1938 103.986H8.51326C7.9337 103.986 7.46387 103.516 7.46387 102.937Z" fill="#3825C2"/>
<path id="Vector 795 (Stroke)" fill-rule="evenodd" clip-rule="evenodd" d="M78.7104 108.044C78.7104 107.465 79.1803 106.995 79.7598 106.995H90.8957C91.4752 106.995 91.9451 107.465 91.9451 108.044C91.9451 108.624 91.4752 109.093 90.8957 109.093H79.7598C79.1803 109.093 78.7104 108.624 78.7104 108.044Z" fill="#3825C2"/>
<path id="Rectangle 65" d="M10.4037 112.823H85.4409C87.4371 112.823 89.1829 111.75 90.1335 110.15L5.76709 110.242C6.72925 111.791 8.44603 112.823 10.4037 112.823Z" fill="#3825C2"/>
<g id="Vector">
<path fill-rule="evenodd" clip-rule="evenodd" d="M19.9629 27.0315C19.9629 26.4519 20.4327 25.9821 21.0123 25.9821H75.4415C76.021 25.9821 76.4909 26.4519 76.4909 27.0315C76.4909 27.6111 76.021 28.0809 75.4415 28.0809H21.0123C20.4327 28.0809 19.9629 27.6111 19.9629 27.0315Z" fill="#3825C2"/>
<path fill-rule="evenodd" clip-rule="evenodd" d="M19.9629 45.0988C19.9629 44.5192 20.4327 44.0494 21.0123 44.0494H75.4414C76.021 44.0494 76.4908 44.5192 76.4908 45.0988C76.4908 45.6784 76.021 46.1482 75.4414 46.1482H21.0123C20.4327 46.1482 19.9629 45.6784 19.9629 45.0988Z" fill="#3825C2"/>
<path fill-rule="evenodd" clip-rule="evenodd" d="M19.9629 50.6667C19.9629 50.0871 20.4327 49.6173 21.0123 49.6173H75.4414C76.021 49.6173 76.4908 50.0871 76.4908 50.6667C76.4908 51.2462 76.021 51.7161 75.4414 51.7161H21.0123C20.4327 51.7161 19.9629 51.2462 19.9629 50.6667Z" fill="#3825C2"/>
<path fill-rule="evenodd" clip-rule="evenodd" d="M19.9629 56.2347C19.9629 55.6551 20.4327 55.1853 21.0123 55.1853H75.4414C76.021 55.1853 76.4908 55.6551 76.4908 56.2347C76.4908 56.8142 76.021 57.2841 75.4414 57.2841H21.0123C20.4327 57.2841 19.9629 56.8142 19.9629 56.2347Z" fill="#3825C2"/>
<path fill-rule="evenodd" clip-rule="evenodd" d="M19.9629 61.6889C19.9629 61.1094 20.4327 60.6395 21.0123 60.6395H53.6243C54.2039 60.6395 54.6737 61.1094 54.6737 61.6889C54.6737 62.2685 54.2039 62.7383 53.6243 62.7383H21.0123C20.4327 62.7383 19.9629 62.2685 19.9629 61.6889Z" fill="#3825C2"/>
<path fill-rule="evenodd" clip-rule="evenodd" d="M19.9629 32.4733C19.9629 31.8938 20.4327 31.4239 21.0123 31.4239H50.7236C51.3032 31.4239 51.773 31.8938 51.773 32.4733C51.773 33.0529 51.3032 33.5227 50.7236 33.5227H21.0123C20.4327 33.5227 19.9629 33.0529 19.9629 32.4733Z" fill="#3825C2"/>
<path fill-rule="evenodd" clip-rule="evenodd" d="M19.9629 82.3573C19.9629 81.7777 20.4327 81.3079 21.0123 81.3079H36.1789C36.7584 81.3079 37.2283 81.7777 37.2283 82.3573C37.2283 82.9368 36.7584 83.4067 36.1789 83.4067H21.0123C20.4327 83.4067 19.9629 82.9368 19.9629 82.3573Z" fill="#3825C2"/>
</g>
<g id="Group 23">
<path id="Rectangle 9 (Stroke)" fill-rule="evenodd" clip-rule="evenodd" d="M62.4658 76.6813C62.8594 76.2877 63.3932 76.0665 63.9499 76.0665H70.9611C72.1202 76.0665 73.0599 77.0062 73.0599 78.1653V88.7629C73.0599 89.5556 72.6133 90.2807 71.9053 90.6373C71.1974 90.994 70.3489 90.9213 69.7119 90.4495L67.4555 88.7782L65.1991 90.4495C64.5621 90.9213 63.7136 90.994 63.0056 90.6373C62.2977 90.2807 61.8511 89.5556 61.8511 88.7629V78.1653C61.8511 77.6087 62.0722 77.0749 62.4658 76.6813ZM67.4555 86.1664L70.9611 88.7629V78.1653H63.9499V88.7629L67.4555 86.1664Z" fill="#3825C2"/>
<path id="Ellipse 385" d="M75.6687 75.2492C75.6687 76.2548 74.4915 76.7965 74.1524 77.6829C73.8081 78.5832 74.2972 79.8258 73.6707 80.5357C72.911 81.3964 71.5483 81.1006 70.4844 81.571C69.497 82.0075 68.8254 83.2415 67.6764 83.2415C66.5275 83.2415 65.8558 82.0075 64.8685 81.571C63.8045 81.1006 62.4418 81.3964 61.6822 80.5357C61.0556 79.8258 61.5447 78.5832 61.2004 77.6829C60.8614 76.7965 59.6841 76.2548 59.6841 75.2492C59.6841 74.2435 60.8614 73.7019 61.2004 72.8154C61.506 72.0165 60.9445 70.8585 61.4754 70.2064C62.1817 69.339 63.0663 69.6142 64.0733 69.1047C65.156 68.557 66.3802 67.2568 67.6764 67.2568C68.9727 67.2568 70.1969 68.557 71.2795 69.1047C72.2866 69.6142 73.1712 69.339 73.8774 70.2064C74.4083 70.8585 73.8468 72.0165 74.1524 72.8154C74.4915 73.7019 75.6687 74.2435 75.6687 75.2492Z" fill="#23FFCA"/>
<path id="Ellipse 385 (Stroke)" fill-rule="evenodd" clip-rule="evenodd" d="M65.5082 69.4477C65.2159 69.6501 64.8864 69.8694 64.5471 70.0411C64.0143 70.3107 63.4601 70.4255 63.1062 70.4988C63.0283 70.5149 62.9601 70.5291 62.904 70.5424C62.5803 70.6192 62.4407 70.6882 62.3001 70.8559C62.2982 70.8699 62.2699 70.9825 62.2999 71.3763C62.3028 71.4153 62.3065 71.4588 62.3103 71.5056C62.3258 71.6924 62.3458 71.9324 62.3471 72.1562C62.3488 72.4475 62.3233 72.8172 62.1806 73.1903C62.0379 73.5635 61.8212 73.8648 61.6293 74.097C61.5027 74.2501 61.3471 74.4175 61.2222 74.5519C61.1733 74.6046 61.1291 74.6522 61.0931 74.6919C60.7602 75.0597 60.7336 75.1813 60.7336 75.2492C60.7336 75.3171 60.7602 75.4387 61.0931 75.8065C61.1291 75.8462 61.1733 75.8938 61.2222 75.9465C61.3471 76.0809 61.5027 76.2483 61.6293 76.4014C61.8212 76.6336 62.0379 76.9349 62.1806 77.3081C62.3231 77.6805 62.3662 78.0517 62.3811 78.3577C62.3915 78.5728 62.3887 78.8101 62.3865 79.0028C62.3857 79.0689 62.385 79.1297 62.3849 79.1826C62.384 79.7202 62.448 79.8175 62.469 79.8413C62.5883 79.9765 62.7888 80.076 63.3296 80.1639C63.4083 80.1767 63.4999 80.1895 63.6013 80.2036C64.0614 80.2675 64.7236 80.3596 65.2929 80.6113C65.6613 80.7741 65.9708 80.9977 66.2206 81.199C66.3487 81.3022 66.5209 81.4513 66.6665 81.5774C66.7537 81.6528 66.8313 81.7201 66.8844 81.7643C67.2965 82.1084 67.5006 82.1921 67.6765 82.1921C67.8524 82.1921 68.0564 82.1084 68.4686 81.7643C68.5216 81.7201 68.5993 81.6528 68.6864 81.5774C68.8321 81.4513 69.0042 81.3022 69.1323 81.199C69.3822 80.9977 69.6917 80.7741 70.0601 80.6113C70.6293 80.3596 71.2916 80.2675 71.7516 80.2036C71.8531 80.1895 71.9447 80.1767 72.0233 80.1639C72.5642 80.076 72.7647 79.9765 72.884 79.8413C72.905 79.8175 72.969 79.7202 72.9681 79.1826C72.968 79.1297 72.9673 79.0689 72.9665 79.0028C72.9642 78.8101 72.9615 78.5728 72.9719 78.3577C72.9868 78.0517 73.0299 77.6805 73.1723 77.3081C73.3151 76.9349 73.5317 76.6336 73.7237 76.4014C73.8503 76.2483 74.0059 76.0809 74.1307 75.9465C74.1797 75.8938 74.2239 75.8462 74.2598 75.8065C74.5928 75.4387 74.6194 75.3171 74.6194 75.2492C74.6194 75.1813 74.5928 75.0597 74.2598 74.6919C74.2239 74.6522 74.1797 74.6046 74.1307 74.5519C74.0059 74.4175 73.8503 74.2501 73.7237 74.097C73.5317 73.8648 73.3151 73.5635 73.1723 73.1903C73.0297 72.8172 73.0042 72.4475 73.0059 72.1562C73.0072 71.9324 73.0271 71.6924 73.0426 71.5057C73.0465 71.4588 73.0501 71.4153 73.0531 71.3763C73.083 70.9825 73.0548 70.8699 73.0529 70.8559C72.9123 70.6882 72.7726 70.6192 72.449 70.5424C72.3928 70.5291 72.3247 70.5149 72.2468 70.4988C71.8929 70.4255 71.3387 70.3107 70.8058 70.0411C70.4665 69.8694 70.1371 69.6501 69.8447 69.4477C69.7446 69.3784 69.6499 69.3118 69.558 69.2472C69.3624 69.1098 69.1796 68.9813 68.9849 68.8544C68.4015 68.4739 67.9953 68.3063 67.6765 68.3063C67.3577 68.3063 66.9515 68.4739 66.3681 68.8544C66.1734 68.9813 65.9906 69.1098 65.795 69.2472C65.7031 69.3118 65.6083 69.3784 65.5082 69.4477ZM65.2216 67.0964C65.845 66.6899 66.699 66.2075 67.6765 66.2075C68.654 66.2075 69.508 66.6899 70.1314 67.0964C70.3574 67.2438 70.5895 67.4068 70.7989 67.5539C70.8835 67.6133 70.9643 67.6701 71.0395 67.7221C71.3218 67.9176 71.5513 68.0661 71.7533 68.1683C72.0158 68.3011 72.228 68.3463 72.5443 68.4138C72.6582 68.438 72.7856 68.4652 72.9337 68.5003C73.4723 68.6282 74.1294 68.8538 74.6912 69.5439C75.2462 70.2255 75.1801 71.0881 75.1478 71.5105C75.1471 71.519 75.1465 71.5273 75.1458 71.5354C75.1405 71.6063 75.1352 71.6706 75.1303 71.73C75.1162 71.9018 75.1054 72.0331 75.1046 72.1686C75.1036 72.3396 75.1225 72.4141 75.1326 72.4406C75.1594 72.5106 75.2171 72.6094 75.3412 72.7596C75.4294 72.8662 75.5118 72.9547 75.6132 73.0635C75.6726 73.1272 75.7384 73.1979 75.8158 73.2833C76.1562 73.6594 76.7182 74.3115 76.7182 75.2492C76.7182 76.1869 76.1562 76.839 75.8158 77.215C75.7384 77.3004 75.6726 77.3712 75.6132 77.4349C75.5118 77.5437 75.4294 77.6322 75.3412 77.7388C75.2171 77.8889 75.1594 77.9878 75.1326 78.0578C75.1029 78.1355 75.0781 78.2572 75.0682 78.4596C75.061 78.6077 75.0627 78.7446 75.0647 78.9115C75.0656 78.9921 75.0667 79.0796 75.0669 79.1789C75.0677 79.6651 75.063 80.5441 74.4575 81.2302C73.8172 81.9557 72.9565 82.1386 72.3601 82.2355C72.1828 82.2644 72.0261 82.287 71.8848 82.3075C71.4667 82.368 71.1847 82.4088 70.9088 82.5308C70.7835 82.5862 70.6388 82.6805 70.4491 82.8334C70.3226 82.9353 70.233 83.0137 70.1315 83.1027C70.0445 83.1789 69.9488 83.2627 69.8135 83.3756C69.3558 83.7577 68.6495 84.2909 67.6765 84.2909C66.7034 84.2909 65.9972 83.7577 65.5395 83.3756C65.4042 83.2627 65.3085 83.1789 65.2215 83.1027C65.1199 83.0137 65.0304 82.9353 64.9038 82.8334C64.7142 82.6805 64.5695 82.5862 64.4442 82.5308C64.1682 82.4088 63.8862 82.368 63.4682 82.3075C63.3269 82.287 63.1702 82.2644 62.9929 82.2355C62.3964 82.1386 61.5358 81.9557 60.8955 81.2302C60.2899 80.5441 60.2853 79.6651 60.2861 79.1789C60.2863 79.0796 60.2873 78.9921 60.2883 78.9115C60.2903 78.7446 60.2919 78.6077 60.2847 78.4596C60.2749 78.2572 60.25 78.1355 60.2203 78.0578C60.1935 77.9878 60.1359 77.8889 60.0118 77.7388C59.9236 77.6322 59.8411 77.5437 59.7398 77.4349C59.6804 77.3712 59.6145 77.3004 59.5372 77.215C59.1968 76.839 58.6348 76.1869 58.6348 75.2492C58.6348 74.3115 59.1968 73.6594 59.5372 73.2833C59.6145 73.1979 59.6804 73.1272 59.7398 73.0635C59.8411 72.9547 59.9236 72.8662 60.0118 72.7596C60.1359 72.6094 60.1935 72.5106 60.2203 72.4406C60.2304 72.4141 60.2493 72.3396 60.2483 72.1686C60.2475 72.0331 60.2368 71.9018 60.2227 71.73C60.2178 71.6706 60.2125 71.6063 60.2071 71.5354C60.2065 71.5273 60.2059 71.519 60.2052 71.5105C60.1729 71.0881 60.1068 70.2255 60.6617 69.5439C61.2236 68.8538 61.8806 68.6282 62.4193 68.5003C62.5674 68.4652 62.6948 68.438 62.8087 68.4138C63.125 68.3463 63.3372 68.3011 63.5997 68.1683C63.8017 68.0661 64.0312 67.9176 64.3134 67.7221C64.3887 67.6701 64.4695 67.6133 64.5541 67.5539C64.7634 67.4068 64.9956 67.2438 65.2216 67.0964Z" fill="#3825C2"/>
<path id="Ellipse 53 (Stroke)" fill-rule="evenodd" clip-rule="evenodd" d="M71.6242 75.1269C71.6242 77.3649 69.8274 79.2147 67.5675 79.2147C65.3075 79.2147 63.5107 77.3649 63.5107 75.1269C63.5107 72.889 65.3075 71.0391 67.5675 71.0391C69.8274 71.0391 71.6242 72.889 71.6242 75.1269ZM67.5675 77.5835C68.907 77.5835 69.993 76.4837 69.993 75.1269C69.993 73.7702 68.907 72.6703 67.5675 72.6703C66.2279 72.6703 65.142 73.7702 65.142 75.1269C65.142 76.4837 66.2279 77.5835 67.5675 77.5835Z" fill="#3825C2"/>
</g>
</g>
</svg>
