<svg width="124" height="90" viewBox="0 0 124 90" fill="none" xmlns="http://www.w3.org/2000/svg">
<g id="Group 1070">
<path id="Rectangle 10" d="M8.37695 10.7148C8.37695 9.44626 9.4053 8.41791 10.6738 8.41791H120.994C122.263 8.41791 123.291 9.44625 123.291 10.7148V81.8716C123.291 83.1402 122.263 84.1685 120.994 84.1685H10.6738C9.4053 84.1685 8.37695 83.1402 8.37695 81.8716V10.7148Z" fill="#3825C2"/>
<path id="Rectangle 8" d="M2.7085 4.8487C2.7085 3.58017 3.73684 2.55182 5.00537 2.55182H115.326C116.594 2.55182 117.623 3.58016 117.623 4.84869V76.0055C117.623 77.2741 116.594 78.3024 115.326 78.3024H5.00537C3.73684 78.3024 2.7085 77.2741 2.7085 76.0055V4.8487Z" fill="#23FFCA"/>
<path id="Rectangle 8 (Stroke)" fill-rule="evenodd" clip-rule="evenodd" d="M5.00537 0.254944H115.326C117.863 0.254944 119.92 2.31163 119.92 4.84869V76.0055C119.92 78.5426 117.863 80.5993 115.326 80.5993H5.00537C2.46832 80.5993 0.411621 78.5426 0.411621 76.0055V4.8487C0.411621 2.31165 2.46831 0.254944 5.00537 0.254944ZM5.00537 2.55182C3.73684 2.55182 2.7085 3.58017 2.7085 4.8487V76.0055C2.7085 77.2741 3.73684 78.3024 5.00537 78.3024H115.326C116.594 78.3024 117.623 77.2741 117.623 76.0055V4.84869C117.623 3.58016 116.594 2.55182 115.326 2.55182H5.00537Z" fill="#3825C2"/>
<g id="Vector">
<path fill-rule="evenodd" clip-rule="evenodd" d="M20.3691 29.9073C20.3691 29.2731 20.8833 28.7589 21.5176 28.7589H98.8141C99.4484 28.7589 99.9625 29.2731 99.9625 29.9073C99.9625 30.5416 99.4484 31.0558 98.8141 31.0558H21.5176C20.8833 31.0558 20.3691 30.5416 20.3691 29.9073Z" fill="#3825C2"/>
<path fill-rule="evenodd" clip-rule="evenodd" d="M44.0732 16.9805C44.0732 16.3462 44.5874 15.832 45.2216 15.832H73.0484C73.6826 15.832 74.1968 16.3462 74.1968 16.9805C74.1968 17.6147 73.6826 18.1289 73.0484 18.1289H45.2216C44.5874 18.1289 44.0732 17.6147 44.0732 16.9805Z" fill="#3825C2"/>
<path fill-rule="evenodd" clip-rule="evenodd" d="M20.3691 35.8334C20.3691 35.1992 20.8833 34.685 21.5176 34.685H98.8141C99.4484 34.685 99.9625 35.1992 99.9625 35.8334C99.9625 36.4677 99.4484 36.9819 98.8141 36.9819H21.5176C20.8833 36.9819 20.3691 36.4677 20.3691 35.8334Z" fill="#3825C2"/>
<path fill-rule="evenodd" clip-rule="evenodd" d="M20.3691 42.8121C20.3691 42.1778 20.8833 41.6637 21.5176 41.6637H98.8141C99.4484 41.6637 99.9625 42.1778 99.9625 42.8121C99.9625 43.4464 99.4484 43.9605 98.8141 43.9605H21.5176C20.8833 43.9605 20.3691 43.4464 20.3691 42.8121Z" fill="#3825C2"/>
<path fill-rule="evenodd" clip-rule="evenodd" d="M20.3691 49.7689C20.3691 49.1346 20.8833 48.6205 21.5176 48.6205H98.8141C99.4484 48.6205 99.9625 49.1346 99.9625 49.7689C99.9625 50.4032 99.4484 50.9173 98.8141 50.9173H21.5176C20.8833 50.9173 20.3691 50.4032 20.3691 49.7689Z" fill="#3825C2"/>
<path fill-rule="evenodd" clip-rule="evenodd" d="M20.3691 56.2098C20.3691 55.5755 20.8833 55.0614 21.5176 55.0614H57.5893C58.2235 55.0614 58.7377 55.5755 58.7377 56.2098C58.7377 56.8441 58.2235 57.3582 57.5893 57.3582H21.5176C20.8833 57.3582 20.3691 56.8441 20.3691 56.2098Z" fill="#3825C2"/>
</g>
<g id="Group 23">
<path id="Rectangle 9" d="M92.2314 65.1018H104.599V87.0025L98.4152 80.8188L92.2314 87.0025V65.1018Z" fill="#23FFCA"/>
<path id="Rectangle 9 (Stroke)" fill-rule="evenodd" clip-rule="evenodd" d="M89.9346 65.1018C89.9346 63.8333 90.9629 62.8049 92.2314 62.8049H104.599C105.867 62.8049 106.896 63.8333 106.896 65.1018V87.0025C106.896 87.9315 106.336 88.769 105.478 89.1245C104.62 89.48 103.632 89.2835 102.975 88.6266L98.4152 84.067L93.8556 88.6266C93.1987 89.2835 92.2108 89.48 91.3525 89.1245C90.4942 88.769 89.9346 87.9315 89.9346 87.0025V65.1018ZM98.4152 80.8188L104.599 87.0025V65.1018H92.2314V87.0025L98.4152 80.8188Z" fill="#3825C2"/>
<path id="Ellipse 53" d="M108.862 65.806C108.862 71.4268 104.363 75.9834 98.8137 75.9834C93.264 75.9834 88.7651 71.4268 88.7651 65.806C88.7651 60.1852 93.264 55.6286 98.8137 55.6286C104.363 55.6286 108.862 60.1852 108.862 65.806Z" fill="#23FFCA"/>
<path id="Ellipse 53 (Stroke)" fill-rule="evenodd" clip-rule="evenodd" d="M111.159 65.806C111.159 72.6676 105.659 78.2802 98.8137 78.2802C91.968 78.2802 86.4683 72.6676 86.4683 65.806C86.4683 58.9443 91.968 53.3317 98.8137 53.3317C105.659 53.3317 111.159 58.9443 111.159 65.806ZM98.8137 75.9834C104.363 75.9834 108.862 71.4268 108.862 65.806C108.862 60.1852 104.363 55.6286 98.8137 55.6286C93.264 55.6286 88.7651 60.1852 88.7651 65.806C88.7651 71.4268 93.264 75.9834 98.8137 75.9834Z" fill="#3825C2"/>
<path id="Ellipse 54 (Stroke)" fill-rule="evenodd" clip-rule="evenodd" d="M106.477 65.8057C106.477 70.0481 103.074 73.5374 98.8142 73.5374C94.5546 73.5374 91.1514 70.0481 91.1514 65.8057C91.1514 61.5633 94.5546 58.0741 98.8142 58.0741C103.074 58.0741 106.477 61.5633 106.477 65.8057ZM98.8142 71.2405C101.778 71.2405 104.18 68.8073 104.18 65.8057C104.18 62.8042 101.778 60.371 98.8142 60.371C95.8507 60.371 93.4482 62.8042 93.4482 65.8057C93.4482 68.8073 95.8507 71.2405 98.8142 71.2405Z" fill="#3825C2"/>
</g>
</g>
</svg>
