<svg width="20" height="20" viewBox="0 0 20 20" fill="none" xmlns="http://www.w3.org/2000/svg">
<path d="M9.99992 4.97918C13.1583 4.97918 15.9749 6.75418 17.3499 9.56251C16.8582 10.5792 16.1666 11.4542 15.3416 12.1625L16.5166 13.3375C17.6749 12.3125 18.5916 11.0292 19.1666 9.56251C17.7249 5.90418 14.1666 3.31251 9.99992 3.31251C8.94158 3.31251 7.92492 3.47918 6.96658 3.78751L8.34158 5.16251C8.88325 5.05418 9.43325 4.97918 9.99992 4.97918ZM9.10825 5.92918L10.8333 7.65418C11.3083 7.86251 11.6916 8.24584 11.8999 8.72084L13.6249 10.4458C13.6916 10.1625 13.7416 9.86251 13.7416 9.55418C13.7499 7.48751 12.0666 5.81251 9.99992 5.81251C9.69158 5.81251 9.39992 5.85418 9.10825 5.92918ZM2.26026 2.61468C1.93665 2.94059 1.93758 3.46684 2.26234 3.7916L3.90825 5.43751C2.54992 6.50418 1.47492 7.92084 0.833252 9.56251C2.27492 13.2208 5.83325 15.8125 9.99992 15.8125C11.2666 15.8125 12.4833 15.5708 13.5999 15.1292L15.8623 17.3916C16.1868 17.7161 16.713 17.7161 17.0375 17.3916C17.3619 17.0671 17.362 16.5411 17.0377 16.2166L3.44151 2.61276C3.11515 2.28622 2.58555 2.28708 2.26026 2.61468ZM7.92492 9.45418L10.0999 11.6292C10.0666 11.6375 10.0333 11.6458 9.99992 11.6458C8.84992 11.6458 7.91658 10.7125 7.91658 9.56251C7.91658 9.52084 7.92492 9.49584 7.92492 9.45418ZM5.09159 6.62084L6.54992 8.07918C6.35825 8.53751 6.24992 9.03751 6.24992 9.56251C6.24992 11.6292 7.93325 13.3125 9.99992 13.3125C10.5249 13.3125 11.0249 13.2042 11.4749 13.0125L12.2916 13.8292C11.5583 14.0292 10.7916 14.1458 9.99992 14.1458C6.84158 14.1458 4.02492 12.3708 2.64992 9.56251C3.23325 8.37084 4.08325 7.38751 5.09159 6.62084Z" fill="black"/>
</svg>
