<svg width="31" height="30" viewBox="0 0 31 30" fill="none" xmlns="http://www.w3.org/2000/svg">
<g clip-path="url(#clip0_245_282)">
<path d="M15.5 30C23.7843 30 30.5 23.2843 30.5 15C30.5 6.71573 23.7843 0 15.5 0C7.21573 0 0.5 6.71573 0.5 15C0.5 23.2843 7.21573 30 15.5 30Z" fill="#3B5998"/>
<path d="M19.2711 15.5872H16.5945V25.3929H12.5393V15.5872H10.6106V12.1411H12.5393V9.91104C12.5393 8.31633 13.2968 5.81918 16.6306 5.81918L19.6344 5.83175V9.17679H17.455C17.0975 9.17679 16.5948 9.35541 16.5948 10.1161V12.1443H19.6254L19.2711 15.5872Z" fill="white"/>
</g>
<defs>
<clipPath id="clip0_245_282">
<rect width="30" height="30" fill="white" transform="translate(0.5)"/>
</clipPath>
</defs>
</svg>
