<svg width="22" height="22" viewBox="0 0 22 22" fill="none" xmlns="http://www.w3.org/2000/svg">
<path d="M18.1211 8.2844L13.8072 7.91005L12.1226 3.94375C11.8196 3.22179 10.7857 3.22179 10.4826 3.94375L8.79807 7.91897L4.49307 8.2844C3.70872 8.34679 3.38785 9.32723 3.98503 9.84418L7.25611 12.6785L6.27568 16.8855C6.09742 17.652 6.92633 18.2581 7.60372 17.8481L11.3026 15.6198L15.0015 17.857C15.6789 18.267 16.5079 17.6609 16.3296 16.8944L15.3492 12.6785L18.6202 9.84418C19.2174 9.32723 18.9055 8.34679 18.1211 8.2844ZM11.3026 13.9531V5.66397L12.8268 9.26484L16.7307 9.60353L13.7715 12.1705L14.6629 15.9853L11.3026 13.9531Z" fill="black"/>
</svg>
