<svg width="40" height="324" viewBox="0 0 40 324" fill="none" xmlns="http://www.w3.org/2000/svg">
<rect width="40" height="324" rx="10" fill="#6A6A6A" fill-opacity="0.15"/>
<path d="M15.0002 161.458L21.4669 154.992L15.0002 148.525C14.3502 147.875 14.3502 146.825 15.0002 146.175C15.6502 145.525 16.7002 145.525 17.3502 146.175L25.0002 153.825C25.6502 154.475 25.6502 155.525 25.0002 156.175L17.3502 163.825C16.7002 164.475 15.6502 164.475 15.0002 163.825C14.3669 163.175 14.3502 162.108 15.0002 161.458Z" fill="#121212"/>
<path d="M15.0002 161.458L21.4669 154.992L15.0002 148.525C14.3502 147.875 14.3502 146.825 15.0002 146.175C15.6502 145.525 16.7002 145.525 17.3502 146.175L25.0002 153.825C25.6502 154.475 25.6502 155.525 25.0002 156.175L17.3502 163.825C16.7002 164.475 15.6502 164.475 15.0002 163.825C14.3669 163.175 14.3502 162.108 15.0002 161.458Z" fill="black" fill-opacity="0.2"/>
</svg>
