<svg width="32" height="32" viewBox="0 0 32 32" fill="none" xmlns="http://www.w3.org/2000/svg">
<path d="M8 9C8 8.44772 8.44772 8 9 8H9.66667C10.219 8 10.6667 8.44772 10.6667 9V23C10.6667 23.5523 10.219 24 9.66667 24H9C8.44772 24 8 23.5523 8 23V9ZM14.4027 14.7745C13.5561 15.3722 13.5561 16.6278 14.4027 17.2255L21.635 22.3306C22.6286 23.0319 24 22.3213 24 21.1051V10.8949C24 9.67865 22.6286 8.96805 21.635 9.66943L14.4027 14.7745ZM21.3333 18.4672C21.3333 18.6294 21.1504 18.7242 21.018 18.6306L17.7559 16.3267C17.5303 16.1674 17.5303 15.8326 17.7559 15.6733L20.7026 13.5922C20.9675 13.405 21.3333 13.5945 21.3333 13.9189V18.4672Z" fill="black"/>
</svg>
