<svg width="32" height="32" viewBox="0 0 32 32" fill="none" xmlns="http://www.w3.org/2000/svg">
<path d="M25.9094 17.3067C25.9627 16.8801 26.0027 16.4534 26.0027 16.0001C26.0027 15.5467 25.9627 15.1201 25.9094 14.6934L28.7227 12.4934C28.9761 12.2934 29.0427 11.9334 28.8827 11.6401L26.216 7.02675C26.0961 6.81342 25.8694 6.69341 25.6294 6.69341C25.5494 6.69341 25.4694 6.70675 25.4027 6.73342L22.0827 8.06675C21.3894 7.53342 20.6427 7.09342 19.8294 6.76008L19.3227 3.22675C19.2827 2.90675 19.0027 2.66675 18.6694 2.66675H13.336C13.0027 2.66675 12.7227 2.90675 12.6827 3.22675L12.176 6.76008C11.3627 7.09342 10.616 7.54675 9.92272 8.06675L6.60272 6.73342C6.52272 6.70675 6.44272 6.69341 6.36272 6.69341C6.13605 6.69341 5.90938 6.81342 5.78938 7.02675L3.12272 11.6401C2.94938 11.9334 3.02938 12.2934 3.28272 12.4934L6.09605 14.6934C6.04272 15.1201 6.00272 15.5601 6.00272 16.0001C6.00272 16.4401 6.04272 16.8801 6.09605 17.3067L3.28272 19.5067C3.02938 19.7067 2.96272 20.0667 3.12272 20.3601L5.78938 24.9734C5.90938 25.1867 6.13605 25.3067 6.37605 25.3067C6.45605 25.3067 6.53605 25.2934 6.60272 25.2668L9.92272 23.9334C10.616 24.4667 11.3627 24.9067 12.176 25.2401L12.6827 28.7734C12.7227 29.0934 13.0027 29.3334 13.336 29.3334H18.6694C19.0027 29.3334 19.2827 29.0934 19.3227 28.7734L19.8294 25.2401C20.6427 24.9067 21.3894 24.4534 22.0827 23.9334L25.4027 25.2668C25.4827 25.2934 25.5627 25.3067 25.6427 25.3067C25.8694 25.3067 26.0961 25.1867 26.216 24.9734L28.8827 20.3601C29.0427 20.0667 28.9761 19.7067 28.7227 19.5067L25.9094 17.3067ZM23.2694 15.0267C23.3227 15.4401 23.3361 15.7201 23.3361 16.0001C23.3361 16.2801 23.3094 16.5734 23.2694 16.9734L23.0827 18.4801L24.2694 19.4134L25.7094 20.5334L24.7761 22.1467L23.0827 21.4667L21.6961 20.9067L20.496 21.8134C19.9227 22.2401 19.376 22.5601 18.8294 22.7867L17.416 23.3601L17.2027 24.8667L16.936 26.6667H15.0694L14.6027 23.3601L13.1894 22.7867C12.616 22.5467 12.0827 22.2401 11.5494 21.8401L10.336 20.9067L8.92272 21.4801L7.22938 22.1601L6.29605 20.5467L7.73605 19.4267L8.92272 18.4934L8.73605 16.9867C8.69605 16.5734 8.66938 16.2667 8.66938 16.0001C8.66938 15.7334 8.69605 15.4267 8.73605 15.0267L8.92272 13.5201L7.73605 12.5867L6.29605 11.4667L7.22938 9.85341L8.92272 10.5334L10.3094 11.0934L11.5094 10.1867C12.0827 9.76008 12.6294 9.44008 13.176 9.21341L14.5894 8.64008L14.8027 7.13341L15.0694 5.33341H16.9227L17.3894 8.64008L18.8027 9.21341C19.3761 9.45341 19.9094 9.76008 20.4427 10.1601L21.656 11.0934L23.0694 10.5201L24.7627 9.84008L25.6961 11.4534L24.2694 12.5867L23.0827 13.5201L23.2694 15.0267ZM16.0027 10.6667C13.056 10.6667 10.6694 13.0534 10.6694 16.0001C10.6694 18.9467 13.056 21.3334 16.0027 21.3334C18.9494 21.3334 21.3361 18.9467 21.3361 16.0001C21.3361 13.0534 18.9494 10.6667 16.0027 10.6667ZM16.0027 18.6667C14.536 18.6667 13.336 17.4667 13.336 16.0001C13.336 14.5334 14.536 13.3334 16.0027 13.3334C17.4694 13.3334 18.6694 14.5334 18.6694 16.0001C18.6694 17.4667 17.4694 18.6667 16.0027 18.6667Z" fill="black"/>
</svg>
