<svg width="148" height="147" viewBox="0 0 148 147" fill="none" xmlns="http://www.w3.org/2000/svg">
<path d="M19.377 37.7148C19.377 36.4463 20.4053 35.4179 21.6738 35.4179H131.994C133.263 35.4179 134.291 36.4463 134.291 37.7148V108.872C134.291 110.14 133.263 111.169 131.994 111.169H21.6738C20.4053 111.169 19.377 110.14 19.377 108.872V37.7148Z" fill="#3825C2"/>
<path d="M13.7085 31.8487C13.7085 30.5802 14.7368 29.5518 16.0054 29.5518H126.326C127.594 29.5518 128.623 30.5802 128.623 31.8487V103.006C128.623 104.274 127.594 105.302 126.326 105.302H16.0054C14.7368 105.302 13.7085 104.274 13.7085 103.006V31.8487Z" fill="white"/>
<path fill-rule="evenodd" clip-rule="evenodd" d="M16.0054 27.2549H126.326C128.863 27.2549 130.92 29.3116 130.92 31.8487V103.006C130.92 105.543 128.863 107.599 126.326 107.599H16.0054C13.4683 107.599 11.4116 105.543 11.4116 103.006V31.8487C11.4116 29.3116 13.4683 27.2549 16.0054 27.2549ZM16.0054 29.5518C14.7368 29.5518 13.7085 30.5802 13.7085 31.8487V103.006C13.7085 104.274 14.7368 105.302 16.0054 105.302H126.326C127.594 105.302 128.623 104.274 128.623 103.006V31.8487C128.623 30.5802 127.594 29.5518 126.326 29.5518H16.0054Z" fill="#3825C2"/>
<path fill-rule="evenodd" clip-rule="evenodd" d="M31.3691 56.9073C31.3691 56.2731 31.8833 55.7589 32.5176 55.7589H109.814C110.448 55.7589 110.963 56.2731 110.963 56.9073C110.963 57.5416 110.448 58.0558 109.814 58.0558H32.5176C31.8833 58.0558 31.3691 57.5416 31.3691 56.9073Z" fill="#3825C2"/>
<path fill-rule="evenodd" clip-rule="evenodd" d="M55.0732 43.9805C55.0732 43.3462 55.5874 42.832 56.2216 42.832H84.0484C84.6826 42.832 85.1968 43.3462 85.1968 43.9805C85.1968 44.6147 84.6826 45.1289 84.0484 45.1289H56.2216C55.5874 45.1289 55.0732 44.6147 55.0732 43.9805Z" fill="#3825C2"/>
<path fill-rule="evenodd" clip-rule="evenodd" d="M31.3691 62.8334C31.3691 62.1992 31.8833 61.685 32.5176 61.685H109.814C110.448 61.685 110.963 62.1992 110.963 62.8334C110.963 63.4677 110.448 63.9819 109.814 63.9819H32.5176C31.8833 63.9819 31.3691 63.4677 31.3691 62.8334Z" fill="#3825C2"/>
<path fill-rule="evenodd" clip-rule="evenodd" d="M31.3691 69.8121C31.3691 69.1778 31.8833 68.6637 32.5176 68.6637H109.814C110.448 68.6637 110.963 69.1778 110.963 69.8121C110.963 70.4464 110.448 70.9605 109.814 70.9605H32.5176C31.8833 70.9605 31.3691 70.4464 31.3691 69.8121Z" fill="#3825C2"/>
<path fill-rule="evenodd" clip-rule="evenodd" d="M31.3691 76.7689C31.3691 76.1346 31.8833 75.6205 32.5176 75.6205H109.814C110.448 75.6205 110.963 76.1346 110.963 76.7689C110.963 77.4032 110.448 77.9173 109.814 77.9173H32.5176C31.8833 77.9173 31.3691 77.4032 31.3691 76.7689Z" fill="#3825C2"/>
<path fill-rule="evenodd" clip-rule="evenodd" d="M31.3691 83.2098C31.3691 82.5755 31.8833 82.0614 32.5176 82.0614H68.5893C69.2235 82.0614 69.7377 82.5755 69.7377 83.2098C69.7377 83.8441 69.2235 84.3582 68.5893 84.3582H32.5176C31.8833 84.3582 31.3691 83.8441 31.3691 83.2098Z" fill="#3825C2"/>
<path d="M103.231 92.1018H115.599V114.002L109.415 107.819L103.231 114.002V92.1018Z" fill="white"/>
<path fill-rule="evenodd" clip-rule="evenodd" d="M100.935 92.1018C100.935 90.8333 101.963 89.8049 103.231 89.8049H115.599C116.867 89.8049 117.896 90.8333 117.896 92.1018V114.002C117.896 114.931 117.336 115.769 116.478 116.125C115.62 116.48 114.632 116.284 113.975 115.627L109.415 111.067L104.856 115.627C104.199 116.284 103.211 116.48 102.352 116.125C101.494 115.769 100.935 114.931 100.935 114.002V92.1018ZM109.415 107.819L115.599 114.002V92.1018H103.231V114.002L109.415 107.819Z" fill="#3825C2"/>
<path d="M119.862 92.806C119.862 98.4268 115.363 102.983 109.814 102.983C104.264 102.983 99.7651 98.4268 99.7651 92.806C99.7651 87.1852 104.264 82.6286 109.814 82.6286C115.363 82.6286 119.862 87.1852 119.862 92.806Z" fill="white"/>
<path fill-rule="evenodd" clip-rule="evenodd" d="M122.159 92.806C122.159 99.6676 116.659 105.28 109.814 105.28C102.968 105.28 97.4683 99.6676 97.4683 92.806C97.4683 85.9443 102.968 80.3317 109.814 80.3317C116.659 80.3317 122.159 85.9443 122.159 92.806ZM109.814 102.983C115.363 102.983 119.862 98.4268 119.862 92.806C119.862 87.1852 115.363 82.6286 109.814 82.6286C104.264 82.6286 99.7651 87.1852 99.7651 92.806C99.7651 98.4268 104.264 102.983 109.814 102.983Z" fill="#3825C2"/>
<path fill-rule="evenodd" clip-rule="evenodd" d="M117.477 92.8057C117.477 97.0481 114.074 100.537 109.814 100.537C105.555 100.537 102.151 97.0481 102.151 92.8057C102.151 88.5633 105.555 85.0741 109.814 85.0741C114.074 85.0741 117.477 88.5633 117.477 92.8057ZM109.814 98.2405C112.778 98.2405 115.18 95.8073 115.18 92.8057C115.18 89.8042 112.778 87.371 109.814 87.371C106.851 87.371 104.448 89.8042 104.448 92.8057C104.448 95.8073 106.851 98.2405 109.814 98.2405Z" fill="#3825C2"/>
</svg>
