<svg width="22" height="22" viewBox="0 0 22 22" fill="none" xmlns="http://www.w3.org/2000/svg">
<path d="M18.1211 8.78349L13.8072 8.40914L12.1226 4.44283C11.8196 3.72088 10.7857 3.72088 10.4826 4.44283L8.79807 8.41805L4.49307 8.78349C3.70872 8.84588 3.38785 9.82631 3.98503 10.3433L7.25611 13.1776L6.27568 17.3846C6.09742 18.1511 6.92633 18.7572 7.60372 18.3472L11.3026 16.1189L15.0015 18.3561C15.6789 18.7661 16.5079 18.16 16.3296 17.3935L15.3492 13.1776L18.6202 10.3433C19.2174 9.82631 18.9055 8.84588 18.1211 8.78349ZM11.3026 14.4522V6.16305L12.8268 9.76392L16.7307 10.1026L13.7715 12.6696L14.6629 16.4844L11.3026 14.4522Z" fill="black"/>
</svg>
