<svg width="148" height="147" viewBox="0 0 148 147" fill="none" xmlns="http://www.w3.org/2000/svg">
<path d="M67.1865 56.6373C75.0644 56.6373 81.4506 63.0235 81.4506 70.9014V95.8526C81.4506 103.73 75.0644 110.117 67.1865 110.117H51.8773L42.8943 121.205C42.2721 121.973 41.0301 121.533 41.0301 120.545V110.117H40.9916C33.1138 110.117 26.7275 103.73 26.7275 95.8526V70.9014C26.7275 63.0235 33.1138 56.6373 40.9917 56.6373H67.1865Z" fill="#3825C2"/>
<path d="M82.8129 32.6101C74.9351 32.6101 68.5488 38.9964 68.5488 46.8742V85.5062C68.5488 93.384 74.9351 99.7703 82.8129 99.7703H101.452L113.324 114.425C113.946 115.193 115.188 114.753 115.188 113.764V99.7703H115.226C123.104 99.7703 129.49 93.384 129.49 85.5062V46.8742C129.49 38.9964 123.104 32.6101 115.226 32.6101H82.8129Z" fill="#3825C2"/>
<path fill-rule="evenodd" clip-rule="evenodd" d="M60.6442 52.5413C68.7553 52.5413 75.3306 59.1166 75.3306 67.2276V91.3344C75.3306 99.4454 68.7553 106.021 60.6442 106.021H45.757L34.9097 119.41V106.016C26.9762 105.812 20.6075 99.317 20.6075 91.3344V67.2276C20.6075 59.1166 27.1828 52.5413 35.2938 52.5413H60.6442Z" fill="white"/>
<path fill-rule="evenodd" clip-rule="evenodd" d="M45.7571 106.021H60.6443C68.7554 106.021 75.3307 99.4454 75.3307 91.3344V67.2276C75.3307 59.1166 68.7554 52.5413 60.6443 52.5413H35.2939C27.1829 52.5413 20.6076 59.1166 20.6076 67.2276V91.3344C20.6076 99.317 26.9763 105.812 34.9098 106.016V119.41L45.7571 106.021ZM32.8117 107.936C24.7185 106.736 18.5095 99.7608 18.5095 91.3344V67.2276C18.5095 57.9579 26.0241 50.4432 35.2939 50.4432H60.6443C69.9141 50.4432 77.4287 57.9578 77.4287 67.2276V91.3344C77.4287 100.604 69.9141 108.119 60.6443 108.119H46.7575L36.54 120.731C35.9806 121.421 35.0469 121.685 34.2092 121.388C33.3716 121.091 32.8117 120.299 32.8117 119.41V107.936Z" fill="#3825C2"/>
<path fill-rule="evenodd" clip-rule="evenodd" d="M21.752 67.6156C21.752 60.084 27.8576 53.9783 35.3892 53.9783H60.5477C68.0794 53.9783 74.185 60.084 74.185 67.6156V91.1376C74.185 98.6693 68.0794 104.775 60.5477 104.775H45.5171C44.9378 104.775 44.4681 104.305 44.4681 103.726C44.4681 103.147 44.9378 102.677 45.5171 102.677H60.5477C66.9207 102.677 72.087 97.5106 72.087 91.1376V67.6156C72.087 61.2427 66.9207 56.0764 60.5477 56.0764H35.3892C29.0163 56.0764 23.85 61.2427 23.85 67.6156V91.1376C23.85 97.5106 29.0163 102.677 35.3893 102.677H36.4159C36.9953 102.677 37.4649 103.147 37.4649 103.726C37.4649 104.305 36.9953 104.775 36.4159 104.775H35.3893C27.8576 104.775 21.752 98.6693 21.752 91.1376V67.6156Z" fill="#3825C2"/>
<path fill-rule="evenodd" clip-rule="evenodd" d="M29.0811 75.0928C29.0811 74.2237 29.7856 73.5192 30.6546 73.5192H43.6012C44.4703 73.5192 45.1748 74.2237 45.1748 75.0928C45.1748 75.9618 44.4703 76.6663 43.6012 76.6663H30.6546C29.7856 76.6663 29.0811 75.9618 29.0811 75.0928Z" fill="#3825C2"/>
<path fill-rule="evenodd" clip-rule="evenodd" d="M29.0811 65.1429C29.0811 64.2738 29.7856 63.5693 30.6546 63.5693H61.1617C62.0307 63.5693 62.7352 64.2738 62.7352 65.1429C62.7352 66.0119 62.0307 66.7164 61.1617 66.7164H30.6546C29.7856 66.7164 29.0811 66.0119 29.0811 65.1429Z" fill="#3825C2"/>
<path fill-rule="evenodd" clip-rule="evenodd" d="M29.0811 84.4205C29.0811 83.5515 29.7856 82.847 30.6546 82.847H36.0407C36.9098 82.847 37.6143 83.5515 37.6143 84.4205C37.6143 85.2895 36.9098 85.994 36.0407 85.994H30.6546C29.7856 85.994 29.0811 85.2895 29.0811 84.4205Z" fill="#3825C2"/>
<path fill-rule="evenodd" clip-rule="evenodd" d="M75.0911 27.5021C66.9801 27.5021 60.4048 34.0774 60.4048 42.1885V79.976C60.4048 88.087 66.9801 94.6623 75.0911 94.6623H93.3084L107.044 111.618V94.6574C114.978 94.4536 121.346 87.9585 121.346 79.976V42.1885C121.346 34.0774 114.771 27.5021 106.66 27.5021H75.0911Z" fill="white"/>
<path fill-rule="evenodd" clip-rule="evenodd" d="M93.3083 94.6623H75.091C66.98 94.6623 60.4047 88.087 60.4047 79.976V42.1885C60.4047 34.0775 66.98 27.5022 75.091 27.5022H106.66C114.771 27.5022 121.346 34.0774 121.346 42.1885V79.976C121.346 87.9585 114.978 94.4536 107.044 94.6574V111.618L93.3083 94.6623ZM109.142 96.578C117.235 95.3779 123.444 88.4023 123.444 79.976V42.1885C123.444 32.9187 115.93 25.4041 106.66 25.4041H75.091C65.8213 25.4041 58.3066 32.9187 58.3066 42.1885V79.976C58.3066 89.2458 65.8212 96.7604 75.091 96.7604H92.3079L105.414 112.938C105.974 113.629 106.907 113.892 107.745 113.595C108.583 113.299 109.142 112.506 109.142 111.618V96.578Z" fill="#3825C2"/>
<path fill-rule="evenodd" clip-rule="evenodd" d="M61.729 42.8741C61.729 35.3424 67.8346 29.2368 75.3663 29.2368H106.23C113.762 29.2368 119.868 35.3424 119.868 42.8741V78.9818C119.868 86.5134 113.762 92.619 106.23 92.619H105.86C105.281 92.619 104.811 92.1494 104.811 91.57C104.811 90.9907 105.281 90.521 105.86 90.521H106.23C112.603 90.521 117.77 85.3547 117.77 78.9818V42.8741C117.77 36.5012 112.603 31.3349 106.23 31.3349H75.3663C68.9933 31.3349 63.827 36.5012 63.827 42.8741V78.9817C63.827 85.3547 68.9934 90.521 75.3663 90.521H94.1559C94.7353 90.521 95.205 90.9907 95.205 91.57C95.205 92.1494 94.7353 92.619 94.1559 92.619H75.3663C67.8346 92.619 61.729 86.5134 61.729 78.9817V42.8741Z" fill="#3825C2"/>
<path fill-rule="evenodd" clip-rule="evenodd" d="M71.4694 64.1536C71.4694 62.9948 72.4088 62.0555 73.5675 62.0555H108.198C109.357 62.0555 110.296 62.9948 110.296 64.1536C110.296 65.3123 109.357 66.2516 108.198 66.2516H73.5675C72.4088 66.2516 71.4694 65.3123 71.4694 64.1536Z" fill="#3825C2"/>
<path fill-rule="evenodd" clip-rule="evenodd" d="M71.4694 53.2517C71.4694 52.093 72.4088 51.1536 73.5675 51.1536H108.198C109.357 51.1536 110.296 52.093 110.296 53.2517C110.296 54.4104 109.357 55.3497 108.198 55.3497H73.5675C72.4088 55.3497 71.4694 54.4104 71.4694 53.2517Z" fill="#3825C2"/>
<path fill-rule="evenodd" clip-rule="evenodd" d="M71.4692 42.7627C71.4692 41.6039 72.4086 40.6646 73.5673 40.6646H108.198C109.356 40.6646 110.296 41.6039 110.296 42.7627C110.296 43.9214 109.356 44.8607 108.198 44.8607H73.5673C72.4086 44.8607 71.4692 43.9214 71.4692 42.7627Z" fill="#3825C2"/>
<path fill-rule="evenodd" clip-rule="evenodd" d="M71.4694 74.3727C71.4694 73.214 72.4088 72.2747 73.5675 72.2747H92.3668C93.5255 72.2747 94.4649 73.214 94.4649 74.3727C94.4649 75.5315 93.5255 76.4708 92.3668 76.4708H73.5675C72.4088 76.4708 71.4694 75.5315 71.4694 74.3727Z" fill="#3825C2"/>
</svg>
