<svg width="32" height="32" viewBox="0 0 32 32" fill="none" xmlns="http://www.w3.org/2000/svg">
<path d="M4 6.66667V10.6667C4 11.4 4.6 12 5.33333 12C6.06667 12 6.66667 11.4 6.66667 10.6667V8C6.66667 7.26667 7.26667 6.66667 8 6.66667H10.6667C11.4 6.66667 12 6.06667 12 5.33333C12 4.6 11.4 4 10.6667 4H6.66667C5.2 4 4 5.2 4 6.66667ZM5.33333 20C4.6 20 4 20.6 4 21.3333V25.3333C4 26.8 5.2 28 6.66667 28H10.6667C11.4 28 12 27.4 12 26.6667C12 25.9333 11.4 25.3333 10.6667 25.3333H8C7.26667 25.3333 6.66667 24.7333 6.66667 24V21.3333C6.66667 20.6 6.06667 20 5.33333 20ZM25.3333 24C25.3333 24.7333 24.7333 25.3333 24 25.3333H21.3333C20.6 25.3333 20 25.9333 20 26.6667C20 27.4 20.6 28 21.3333 28H25.3333C26.8 28 28 26.8 28 25.3333V21.3333C28 20.6 27.4 20 26.6667 20C25.9333 20 25.3333 20.6 25.3333 21.3333V24ZM25.3333 4H21.3333C20.6 4 20 4.6 20 5.33333C20 6.06667 20.6 6.66667 21.3333 6.66667H24C24.7333 6.66667 25.3333 7.26667 25.3333 8V10.6667C25.3333 11.4 25.9333 12 26.6667 12C27.4 12 28 11.4 28 10.6667V6.66667C28 5.2 26.8 4 25.3333 4Z" fill="black"/>
</svg>
