<svg width="148" height="147" viewBox="0 0 148 147" fill="none" xmlns="http://www.w3.org/2000/svg">
<path d="M26.4453 121.465C26.4453 119.786 27.8062 118.426 29.4849 118.426H118.515C120.193 118.426 121.554 119.786 121.554 121.465C121.554 123.144 120.193 124.505 118.515 124.505H29.4849C27.8062 124.505 26.4453 123.144 26.4453 121.465Z" fill="#3825C2"/>
<path d="M26.4453 24.1973C26.4453 22.5185 27.8062 21.1577 29.4849 21.1577H118.515C120.193 21.1577 121.554 22.5185 121.554 24.1973C121.554 25.876 120.193 27.2369 118.515 27.2369H29.4849C27.8062 27.2369 26.4453 25.876 26.4453 24.1973Z" fill="#3825C2"/>
<path d="M37.7676 32.5467C37.7676 27.9101 41.5262 24.1515 46.1628 24.1515H101.682C106.319 24.1515 110.078 27.9101 110.078 32.5467V113.414C110.078 118.05 106.319 121.809 101.682 121.809H46.1628C41.5262 121.809 37.7676 118.05 37.7676 113.414V32.5467Z" fill="white"/>
<path fill-rule="evenodd" clip-rule="evenodd" d="M46.1629 22.0527H101.683C107.478 22.0527 112.177 26.751 112.177 32.5467V113.414C112.177 119.209 107.478 123.908 101.683 123.908H46.1629C40.3673 123.908 35.6689 119.209 35.6689 113.414V32.5466C35.6689 26.751 40.3673 22.0527 46.1629 22.0527ZM46.1629 24.1515C41.5264 24.1515 37.7677 27.9101 37.7677 32.5466V113.414C37.7677 118.05 41.5264 121.809 46.1629 121.809H101.683C106.319 121.809 110.078 118.05 110.078 113.414V32.5467C110.078 27.9101 106.319 24.1515 101.683 24.1515H46.1629Z" fill="#3825C2"/>
<path d="M37.7676 109.96H110.078V113.627H37.7676V109.96Z" fill="#3825C2"/>
<path d="M30.9497 24.67C30.9497 21.1926 33.7687 18.3737 37.2461 18.3737H110.599C114.076 18.3737 116.895 21.1926 116.895 24.67V25.2584C116.895 28.7358 114.076 31.5548 110.599 31.5548H37.2461C33.7687 31.5548 30.9497 28.7358 30.9497 25.2584V24.67Z" fill="white"/>
<path fill-rule="evenodd" clip-rule="evenodd" d="M37.2463 16.2748H110.599C115.236 16.2748 118.994 20.0335 118.994 24.67V25.2584C118.994 29.895 115.236 33.6536 110.599 33.6536H37.2462C32.6097 33.6536 28.8511 29.895 28.8511 25.2584V24.67C28.8511 20.0335 32.6097 16.2748 37.2463 16.2748ZM37.2463 18.3736C33.7689 18.3736 30.9499 21.1926 30.9499 24.67V25.2584C30.9499 28.7358 33.7689 31.5548 37.2462 31.5548H110.599C114.077 31.5548 116.896 28.7358 116.896 25.2584V24.67C116.896 21.1926 114.077 18.3736 110.599 18.3736H37.2463Z" fill="#3825C2"/>
<path fill-rule="evenodd" clip-rule="evenodd" d="M93.4609 21.6689C93.4609 21.0893 93.9308 20.6195 94.5103 20.6195H112.919C113.498 20.6195 113.968 21.0893 113.968 21.6689C113.968 22.2485 113.498 22.7183 112.919 22.7183H94.5103C93.9308 22.7183 93.4609 22.2485 93.4609 21.6689Z" fill="#3825C2"/>
<path d="M36.4037 31.5547H111.441C113.437 31.5547 115.183 30.4823 116.133 28.8822L31.7671 28.9743C32.7292 30.5233 34.446 31.5547 36.4037 31.5547Z" fill="#3825C2"/>
<path d="M30.9497 121.029C30.9497 117.551 33.7687 114.732 37.2461 114.732H110.599C114.076 114.732 116.895 117.551 116.895 121.029V122.33C116.895 125.808 114.076 128.627 110.599 128.627H37.2461C33.7687 128.627 30.9497 125.808 30.9497 122.33V121.029Z" fill="white"/>
<path fill-rule="evenodd" clip-rule="evenodd" d="M37.2463 112.634H110.599C115.236 112.634 118.994 116.392 118.994 121.029V122.33C118.994 126.967 115.236 130.725 110.599 130.725H37.2462C32.6097 130.725 28.8511 126.967 28.8511 122.33V121.029C28.8511 116.392 32.6097 112.634 37.2463 112.634ZM37.2463 114.732C33.7689 114.732 30.9499 117.551 30.9499 121.029V122.33C30.9499 125.808 33.7689 128.626 37.2462 128.626H110.599C114.077 128.626 116.896 125.808 116.896 122.33V121.029C116.896 117.551 114.077 114.732 110.599 114.732H37.2463Z" fill="#3825C2"/>
<path fill-rule="evenodd" clip-rule="evenodd" d="M33.4639 118.937C33.4639 118.357 33.9337 117.887 34.5133 117.887H60.1938C60.7734 117.887 61.2432 118.357 61.2432 118.937C61.2432 119.516 60.7734 119.986 60.1938 119.986H34.5133C33.9337 119.986 33.4639 119.516 33.4639 118.937Z" fill="#3825C2"/>
<path fill-rule="evenodd" clip-rule="evenodd" d="M104.71 124.044C104.71 123.465 105.18 122.995 105.76 122.995H116.896C117.475 122.995 117.945 123.465 117.945 124.044C117.945 124.624 117.475 125.093 116.896 125.093H105.76C105.18 125.093 104.71 124.624 104.71 124.044Z" fill="#3825C2"/>
<path d="M36.4037 128.823H111.441C113.437 128.823 115.183 127.75 116.133 126.15L31.7671 126.242C32.7292 127.791 34.446 128.823 36.4037 128.823Z" fill="#3825C2"/>
<path fill-rule="evenodd" clip-rule="evenodd" d="M45.9629 43.0315C45.9629 42.4519 46.4327 41.9821 47.0123 41.9821H101.441C102.021 41.9821 102.491 42.4519 102.491 43.0315C102.491 43.6111 102.021 44.0809 101.441 44.0809H47.0123C46.4327 44.0809 45.9629 43.6111 45.9629 43.0315Z" fill="#3825C2"/>
<path fill-rule="evenodd" clip-rule="evenodd" d="M45.9629 61.0988C45.9629 60.5192 46.4327 60.0494 47.0123 60.0494H101.441C102.021 60.0494 102.491 60.5192 102.491 61.0988C102.491 61.6784 102.021 62.1482 101.441 62.1482H47.0123C46.4327 62.1482 45.9629 61.6784 45.9629 61.0988Z" fill="#3825C2"/>
<path fill-rule="evenodd" clip-rule="evenodd" d="M45.9629 66.6667C45.9629 66.0871 46.4327 65.6173 47.0123 65.6173H101.441C102.021 65.6173 102.491 66.0871 102.491 66.6667C102.491 67.2462 102.021 67.7161 101.441 67.7161H47.0123C46.4327 67.7161 45.9629 67.2462 45.9629 66.6667Z" fill="#3825C2"/>
<path fill-rule="evenodd" clip-rule="evenodd" d="M45.9629 72.2347C45.9629 71.6551 46.4327 71.1853 47.0123 71.1853H101.441C102.021 71.1853 102.491 71.6551 102.491 72.2347C102.491 72.8142 102.021 73.2841 101.441 73.2841H47.0123C46.4327 73.2841 45.9629 72.8142 45.9629 72.2347Z" fill="#3825C2"/>
<path fill-rule="evenodd" clip-rule="evenodd" d="M45.9629 77.6889C45.9629 77.1094 46.4327 76.6395 47.0123 76.6395H79.6243C80.2039 76.6395 80.6737 77.1094 80.6737 77.6889C80.6737 78.2685 80.2039 78.7383 79.6243 78.7383H47.0123C46.4327 78.7383 45.9629 78.2685 45.9629 77.6889Z" fill="#3825C2"/>
<path fill-rule="evenodd" clip-rule="evenodd" d="M45.9629 48.4733C45.9629 47.8938 46.4327 47.4239 47.0123 47.4239H76.7236C77.3032 47.4239 77.773 47.8938 77.773 48.4733C77.773 49.0529 77.3032 49.5227 76.7236 49.5227H47.0123C46.4327 49.5227 45.9629 49.0529 45.9629 48.4733Z" fill="#3825C2"/>
<path fill-rule="evenodd" clip-rule="evenodd" d="M45.9629 98.3573C45.9629 97.7777 46.4327 97.3079 47.0123 97.3079H62.1789C62.7584 97.3079 63.2283 97.7777 63.2283 98.3573C63.2283 98.9368 62.7584 99.4067 62.1789 99.4067H47.0123C46.4327 99.4067 45.9629 98.9368 45.9629 98.3573Z" fill="#3825C2"/>
<path fill-rule="evenodd" clip-rule="evenodd" d="M88.4658 92.6813C88.8594 92.2877 89.3932 92.0665 89.9499 92.0665H96.9611C98.1202 92.0665 99.0599 93.0062 99.0599 94.1653V104.763C99.0599 105.556 98.6133 106.281 97.9053 106.637C97.1974 106.994 96.3489 106.921 95.7119 106.449L93.4555 104.778L91.1991 106.449C90.5621 106.921 89.7136 106.994 89.0056 106.637C88.2977 106.281 87.8511 105.556 87.8511 104.763V94.1653C87.8511 93.6087 88.0722 93.0749 88.4658 92.6813ZM93.4555 102.166L96.9611 104.763V94.1653H89.9499V104.763L93.4555 102.166Z" fill="#3825C2"/>
<path d="M101.669 91.2492C101.669 92.2548 100.491 92.7965 100.152 93.6829C99.8081 94.5832 100.297 95.8258 99.6707 96.5357C98.9111 97.3964 97.5483 97.1006 96.4844 97.571C95.497 98.0075 94.8254 99.2415 93.6764 99.2415C92.5275 99.2415 91.8558 98.0075 90.8685 97.571C89.8045 97.1006 88.4418 97.3964 87.6822 96.5357C87.0556 95.8258 87.5447 94.5832 87.2004 93.6829C86.8614 92.7965 85.6841 92.2548 85.6841 91.2492C85.6841 90.2435 86.8614 89.7019 87.2004 88.8154C87.506 88.0165 86.9445 86.8585 87.4754 86.2064C88.1817 85.339 89.0663 85.6142 90.0733 85.1047C91.156 84.557 92.3802 83.2568 93.6764 83.2568C94.9727 83.2568 96.1969 84.557 97.2795 85.1047C98.2866 85.6142 99.1711 85.339 99.8774 86.2064C100.408 86.8585 99.8468 88.0165 100.152 88.8154C100.491 89.7019 101.669 90.2435 101.669 91.2492Z" fill="white"/>
<path fill-rule="evenodd" clip-rule="evenodd" d="M91.5082 85.4477C91.2159 85.6501 90.8864 85.8694 90.5471 86.0411C90.0143 86.3107 89.4601 86.4255 89.1062 86.4988C89.0283 86.5149 88.9601 86.5291 88.904 86.5424C88.5803 86.6192 88.4407 86.6882 88.3001 86.8559C88.2982 86.8699 88.2699 86.9825 88.2999 87.3763C88.3028 87.4153 88.3065 87.4588 88.3103 87.5056C88.3258 87.6924 88.3458 87.9324 88.3471 88.1562C88.3488 88.4475 88.3233 88.8172 88.1806 89.1903C88.0379 89.5635 87.8212 89.8648 87.6293 90.097C87.5027 90.2501 87.3471 90.4175 87.2222 90.5519C87.1733 90.6046 87.1291 90.6522 87.0931 90.6919C86.7602 91.0597 86.7336 91.1813 86.7336 91.2492C86.7336 91.3171 86.7602 91.4387 87.0931 91.8065C87.1291 91.8462 87.1733 91.8938 87.2222 91.9465C87.3471 92.0809 87.5027 92.2483 87.6293 92.4014C87.8212 92.6336 88.0379 92.9349 88.1806 93.3081C88.3231 93.6805 88.3662 94.0517 88.3811 94.3577C88.3915 94.5728 88.3887 94.8101 88.3865 95.0028C88.3857 95.0689 88.385 95.1297 88.3849 95.1826C88.384 95.7202 88.448 95.8175 88.469 95.8413C88.5883 95.9765 88.7888 96.076 89.3296 96.1639C89.4083 96.1767 89.4999 96.1895 89.6013 96.2036C90.0614 96.2675 90.7236 96.3596 91.2929 96.6113C91.6613 96.7741 91.9708 96.9977 92.2206 97.199C92.3487 97.3022 92.5209 97.4513 92.6665 97.5774C92.7537 97.6528 92.8313 97.7201 92.8844 97.7643C93.2965 98.1084 93.5006 98.1921 93.6765 98.1921C93.8524 98.1921 94.0565 98.1084 94.4686 97.7643C94.5216 97.7201 94.5993 97.6528 94.6864 97.5774C94.8321 97.4513 95.0042 97.3023 95.1323 97.199C95.3822 96.9977 95.6917 96.7741 96.0601 96.6113C96.6293 96.3596 97.2916 96.2675 97.7516 96.2036C97.8531 96.1895 97.9447 96.1767 98.0233 96.1639C98.5642 96.076 98.7647 95.9765 98.884 95.8413C98.905 95.8175 98.969 95.7202 98.9681 95.1826C98.968 95.1297 98.9673 95.0689 98.9665 95.0028C98.9642 94.8101 98.9615 94.5728 98.9719 94.3577C98.9868 94.0517 99.0299 93.6805 99.1723 93.3081C99.3151 92.9349 99.5317 92.6336 99.7237 92.4014C99.8503 92.2483 100.006 92.0809 100.131 91.9465C100.18 91.8938 100.224 91.8462 100.26 91.8065C100.593 91.4387 100.619 91.3171 100.619 91.2492C100.619 91.1813 100.593 91.0597 100.26 90.6919C100.224 90.6522 100.18 90.6046 100.131 90.5519C100.006 90.4175 99.8503 90.2501 99.7237 90.097C99.5317 89.8648 99.3151 89.5635 99.1723 89.1903C99.0297 88.8172 99.0042 88.4475 99.0059 88.1562C99.0072 87.9324 99.0271 87.6924 99.0426 87.5057C99.0465 87.4588 99.0501 87.4153 99.0531 87.3763C99.083 86.9825 99.0548 86.8699 99.0529 86.8559C98.9123 86.6882 98.7726 86.6192 98.449 86.5424C98.3928 86.5291 98.3247 86.5149 98.2468 86.4988C97.8929 86.4255 97.3387 86.3107 96.8058 86.0411C96.4665 85.8694 96.1371 85.6501 95.8447 85.4477C95.7446 85.3784 95.6499 85.3118 95.558 85.2472C95.3624 85.1098 95.1796 84.9813 94.9849 84.8544C94.4015 84.4739 93.9953 84.3063 93.6765 84.3063C93.3577 84.3063 92.9515 84.4739 92.3681 84.8544C92.1734 84.9813 91.9906 85.1098 91.795 85.2472C91.7031 85.3118 91.6083 85.3784 91.5082 85.4477ZM91.2216 83.0964C91.845 82.6899 92.699 82.2075 93.6765 82.2075C94.654 82.2075 95.508 82.6899 96.1314 83.0964C96.3574 83.2438 96.5895 83.4068 96.7989 83.5539C96.8835 83.6133 96.9643 83.6701 97.0395 83.7221C97.3218 83.9176 97.5513 84.0661 97.7533 84.1683C98.0158 84.3011 98.228 84.3463 98.5443 84.4138C98.6582 84.438 98.7856 84.4652 98.9337 84.5003C99.4723 84.6282 100.129 84.8538 100.691 85.5439C101.246 86.2255 101.18 87.0881 101.148 87.5105C101.147 87.519 101.146 87.5273 101.146 87.5354C101.14 87.6063 101.135 87.6706 101.13 87.73C101.116 87.9018 101.105 88.0331 101.105 88.1686C101.104 88.3396 101.123 88.4141 101.133 88.4406C101.159 88.5106 101.217 88.6094 101.341 88.7596C101.429 88.8662 101.512 88.9547 101.613 89.0635C101.673 89.1272 101.738 89.1979 101.816 89.2833C102.156 89.6594 102.718 90.3115 102.718 91.2492C102.718 92.1869 102.156 92.839 101.816 93.215C101.738 93.3004 101.673 93.3712 101.613 93.4349C101.512 93.5437 101.429 93.6322 101.341 93.7388C101.217 93.8889 101.159 93.9878 101.133 94.0578C101.103 94.1355 101.078 94.2572 101.068 94.4596C101.061 94.6077 101.063 94.7446 101.065 94.9115C101.066 94.9921 101.067 95.0796 101.067 95.1789C101.068 95.6651 101.063 96.5441 100.458 97.2302C99.8172 97.9557 98.9565 98.1386 98.3601 98.2355C98.1828 98.2644 98.0261 98.287 97.8848 98.3075C97.4667 98.368 97.1847 98.4088 96.9088 98.5308C96.7835 98.5862 96.6388 98.6805 96.4491 98.8334C96.3226 98.9353 96.233 99.0137 96.1315 99.1027C96.0445 99.1789 95.9488 99.2627 95.8135 99.3756C95.3558 99.7577 94.6495 100.291 93.6765 100.291C92.7034 100.291 91.9972 99.7577 91.5395 99.3756C91.4042 99.2627 91.3085 99.1789 91.2215 99.1027C91.1199 99.0137 91.0304 98.9353 90.9038 98.8334C90.7142 98.6805 90.5695 98.5862 90.4442 98.5308C90.1682 98.4088 89.8862 98.368 89.4682 98.3075C89.3269 98.287 89.1702 98.2644 88.9929 98.2355C88.3964 98.1386 87.5358 97.9557 86.8955 97.2302C86.2899 96.5441 86.2853 95.6651 86.2861 95.1789C86.2863 95.0796 86.2873 94.9921 86.2883 94.9115C86.2903 94.7446 86.2919 94.6077 86.2847 94.4596C86.2749 94.2572 86.25 94.1355 86.2203 94.0578C86.1935 93.9878 86.1359 93.8889 86.0118 93.7388C85.9236 93.6322 85.8411 93.5437 85.7398 93.4349C85.6804 93.3712 85.6145 93.3004 85.5372 93.215C85.1968 92.839 84.6348 92.1869 84.6348 91.2492C84.6348 90.3115 85.1968 89.6594 85.5372 89.2833C85.6145 89.1979 85.6804 89.1272 85.7398 89.0635C85.8411 88.9547 85.9236 88.8662 86.0118 88.7596C86.1359 88.6094 86.1935 88.5106 86.2203 88.4406C86.2304 88.4141 86.2493 88.3396 86.2483 88.1686C86.2475 88.0331 86.2368 87.9018 86.2227 87.73C86.2178 87.6706 86.2125 87.6063 86.2071 87.5354C86.2065 87.5273 86.2059 87.519 86.2052 87.5105C86.1729 87.0881 86.1068 86.2255 86.6617 85.5439C87.2236 84.8538 87.8806 84.6282 88.4193 84.5003C88.5674 84.4652 88.6948 84.438 88.8087 84.4138C89.125 84.3463 89.3372 84.3011 89.5997 84.1683C89.8017 84.0661 90.0312 83.9176 90.3134 83.7221C90.3887 83.6701 90.4695 83.6133 90.5541 83.5539C90.7634 83.4068 90.9956 83.2438 91.2216 83.0964Z" fill="#3825C2"/>
<path fill-rule="evenodd" clip-rule="evenodd" d="M97.6242 91.1269C97.6242 93.3649 95.8274 95.2147 93.5675 95.2147C91.3075 95.2147 89.5107 93.3649 89.5107 91.1269C89.5107 88.889 91.3075 87.0391 93.5675 87.0391C95.8274 87.0391 97.6242 88.889 97.6242 91.1269ZM93.5675 93.5835C94.907 93.5835 95.993 92.4837 95.993 91.1269C95.993 89.7702 94.907 88.6703 93.5675 88.6703C92.2279 88.6703 91.142 89.7702 91.142 91.1269C91.142 92.4837 92.2279 93.5835 93.5675 93.5835Z" fill="#3825C2"/>
</svg>
