<svg width="24" height="25" viewBox="0 0 24 25" fill="none" xmlns="http://www.w3.org/2000/svg">
<path d="M19 4.5H14.82C14.4 3.34 13.3 2.5 12 2.5C10.7 2.5 9.6 3.34 9.18 4.5H5C3.9 4.5 3 5.4 3 6.5V20.5C3 21.6 3.9 22.5 5 22.5H19C20.1 22.5 21 21.6 21 20.5V6.5C21 5.4 20.1 4.5 19 4.5ZM12 4.25C12.22 4.25 12.41 4.35 12.55 4.5C12.67 4.63 12.75 4.81 12.75 5C12.75 5.41 12.41 5.75 12 5.75C11.59 5.75 11.25 5.41 11.25 5C11.25 4.81 11.33 4.63 11.45 4.5C11.59 4.35 11.78 4.25 12 4.25ZM19 20.5H5V6.5H19V20.5ZM12 7.5C10.35 7.5 9 8.85 9 10.5C9 12.15 10.35 13.5 12 13.5C13.65 13.5 15 12.15 15 10.5C15 8.85 13.65 7.5 12 7.5ZM12 11.5C11.45 11.5 11 11.05 11 10.5C11 9.95 11.45 9.5 12 9.5C12.55 9.5 13 9.95 13 10.5C13 11.05 12.55 11.5 12 11.5ZM6 17.97V19.5H18V17.97C18 15.47 14.03 14.39 12 14.39C9.97 14.39 6 15.46 6 17.97ZM8.31 17.5C9 16.94 10.69 16.38 12 16.38C13.31 16.38 15.01 16.94 15.69 17.5H8.31Z" fill="#FFFFF0"/>
</svg>
