<svg width="12" height="13" viewBox="0 0 12 13" fill="none" xmlns="http://www.w3.org/2000/svg">
<path d="M8.75137 1.76794L10.9109 3.57029L10.3109 4.28982L8.14996 2.48841L8.75137 1.76794ZM3.74793 1.76794L4.34887 2.48794L2.18887 4.28982L1.58887 3.56982L3.74793 1.76794ZM6.24965 2.79451C3.91996 2.79451 2.0309 4.68357 2.0309 7.01326C2.0309 9.34295 3.91996 11.232 6.24965 11.232C8.57934 11.232 10.4684 9.34295 10.4684 7.01326C10.4684 4.68357 8.57934 2.79451 6.24965 2.79451ZM6.24965 10.2945C4.44027 10.2945 2.9684 8.82263 2.9684 7.01326C2.9684 5.20388 4.44027 3.73201 6.24965 3.73201C8.05902 3.73201 9.5309 5.20388 9.5309 7.01326C9.5309 8.82263 8.05902 10.2945 6.24965 10.2945ZM6.7184 5.13826H5.7809V6.54451H4.37465V7.48201H5.7809V8.88826H6.7184V7.48201H8.12465V6.54451H6.7184V5.13826Z" fill="#FFFFF0"/>
</svg>
