<svg width="82" height="22" viewBox="0 0 82 22" fill="none" xmlns="http://www.w3.org/2000/svg">
<path d="M10.6952 15.6152L14.3941 17.8524C15.0715 18.2624 15.9004 17.6563 15.7222 16.8898L14.7417 12.6828L18.0128 9.84846C18.61 9.3315 18.2891 8.35107 17.5048 8.28868L13.1998 7.92324L11.5152 3.94802C11.2122 3.22607 10.1783 3.22607 9.87521 3.94802L8.19065 7.91433L3.88565 8.27976C3.1013 8.34215 2.78043 9.32259 3.3776 9.83954L6.64869 12.6739L5.66826 16.8808C5.49 17.6474 6.31891 18.2535 6.9963 17.8435L10.6952 15.6152Z" fill="black"/>
<path d="M25.8476 15.6153L29.5465 17.8524C30.2239 18.2624 31.0528 17.6563 30.8745 16.8898L29.8941 12.6829L33.1652 9.84852C33.7623 9.33156 33.4415 8.35113 32.6571 8.28874L28.3521 7.9233L26.6676 3.94808C26.3645 3.22613 25.3306 3.22613 25.0276 3.94808L23.343 7.91439L19.038 8.27982C18.2536 8.34221 17.9328 9.32265 18.5299 9.83961L21.801 12.674L20.8206 16.8809C20.6423 17.6474 21.4713 18.2535 22.1486 17.8435L25.8476 15.6153Z" fill="black"/>
<path d="M40.9999 15.6153L44.6988 17.8524C45.3762 18.2624 46.2051 17.6563 46.0269 16.8898L45.0464 12.6829L48.3175 9.84852C48.9147 9.33156 48.5938 8.35113 47.8095 8.28874L43.5045 7.9233L41.8199 3.94808C41.5169 3.22613 40.4829 3.22613 40.1799 3.94808L38.4953 7.91439L34.1903 8.27982C33.406 8.34221 33.0851 9.32265 33.6823 9.83961L36.9534 12.674L35.9729 16.8809C35.7947 17.6474 36.6236 18.2535 37.301 17.8435L40.9999 15.6153Z" fill="black"/>
<path d="M56.1522 15.6153L59.8512 17.8525C60.5285 18.2625 61.3575 17.6564 61.1792 16.8899L60.1988 12.6829L63.4699 9.84858C64.067 9.33162 63.7462 8.35119 62.9618 8.2888L58.6568 7.92336L56.9722 3.94814C56.6692 3.22619 55.6353 3.22619 55.3322 3.94814L53.6477 7.91445L49.3427 8.27988C48.5583 8.34228 48.2375 9.32271 48.8346 9.83967L52.1057 12.674L51.1253 16.881C50.947 17.6475 51.7759 18.2536 52.4533 17.8436L56.1522 15.6153Z" fill="black"/>
<path d="M78.1211 8.28434L73.8072 7.90999L72.1226 3.94369C71.8196 3.22173 70.7857 3.22173 70.4826 3.94369L68.7981 7.91891L64.4931 8.28434C63.7087 8.34673 63.3879 9.32717 63.985 9.84412L67.2561 12.6785L66.2757 16.8854C66.0974 17.652 66.9263 18.258 67.6037 17.848L71.3026 15.6198L75.0015 17.857C75.6789 18.267 76.5079 17.6609 76.3296 16.8943L75.3492 12.6785L78.6202 9.84412C79.2174 9.32717 78.9055 8.34673 78.1211 8.28434ZM71.3026 13.953V5.66391L72.8268 9.26478L76.7307 9.60347L73.7715 12.1704L74.6629 15.9852L71.3026 13.953Z" fill="black"/>
</svg>
