<svg width="70" height="70" viewBox="0 0 70 70" fill="none" xmlns="http://www.w3.org/2000/svg">
<path d="M32.3303 24.8465C30.3337 23.5631 27.708 24.9966 27.708 27.3701V42.6301C27.708 45.0036 30.3337 46.4371 32.3303 45.1536L44.1992 37.5236C46.0361 36.3427 46.0361 33.6575 44.1992 32.4765L32.3303 24.8465Z" fill="black"/>
<path d="M58.333 11.6667H11.6663C8.45801 11.6667 5.83301 14.2917 5.83301 17.5001V52.5001C5.83301 55.7084 8.45801 58.3334 11.6663 58.3334H58.333C61.5413 58.3334 64.1663 55.7084 64.1663 52.5001V17.5001C64.1663 14.2917 61.5413 11.6667 58.333 11.6667ZM58.333 50.5293C58.333 51.6338 57.4376 52.5293 56.333 52.5293H13.6663C12.5618 52.5293 11.6663 51.6338 11.6663 50.5293V19.4709C11.6663 18.3663 12.5618 17.4709 13.6663 17.4709H56.333C57.4376 17.4709 58.333 18.3663 58.333 19.4709V50.5293Z" fill="black"/>
</svg>
