<svg width="24" height="25" viewBox="0 0 24 25" fill="none" xmlns="http://www.w3.org/2000/svg">
<path d="M19 4.37402H18V2.37402H16V4.37402H8V2.37402H6V4.37402H5C3.89 4.37402 3.01 5.27402 3.01 6.37402L3 20.374C3 21.474 3.89 22.374 5 22.374H19C20.1 22.374 21 21.474 21 20.374V6.37402C21 5.27402 20.1 4.37402 19 4.37402ZM19 20.374H5V10.374H19V20.374ZM19 8.37402H5V6.37402H19V8.37402ZM9 14.374H7V12.374H9V14.374ZM13 14.374H11V12.374H13V14.374ZM17 14.374H15V12.374H17V14.374ZM9 18.374H7V16.374H9V18.374ZM13 18.374H11V16.374H13V18.374ZM17 18.374H15V16.374H17V18.374Z" fill="#121212"/>
<path d="M19 4.37402H18V2.37402H16V4.37402H8V2.37402H6V4.37402H5C3.89 4.37402 3.01 5.27402 3.01 6.37402L3 20.374C3 21.474 3.89 22.374 5 22.374H19C20.1 22.374 21 21.474 21 20.374V6.37402C21 5.27402 20.1 4.37402 19 4.37402ZM19 20.374H5V10.374H19V20.374ZM19 8.37402H5V6.37402H19V8.37402ZM9 14.374H7V12.374H9V14.374ZM13 14.374H11V12.374H13V14.374ZM17 14.374H15V12.374H17V14.374ZM9 18.374H7V16.374H9V18.374ZM13 18.374H11V16.374H13V18.374ZM17 18.374H15V16.374H17V18.374Z" fill="black" fill-opacity="0.2"/>
</svg>
