<svg width="32" height="32" viewBox="0 0 32 32" fill="none" xmlns="http://www.w3.org/2000/svg">
<path d="M4.4 12C4.17909 12 4 12.1791 4 12.4V19.6C4 19.8209 4.17909 20 4.4 20H9.33333L15.3172 25.9838C15.5691 26.2358 16 26.0573 16 25.701V6.29899C16 5.94263 15.5691 5.76416 15.3172 6.01615L9.33333 12H4.4ZM12.9919 12.1147C13.1179 11.9887 13.3333 12.078 13.3333 12.2562V19.7438C13.3333 19.922 13.1179 20.0112 12.9919 19.8852L10.44 17.3333H6.86667C6.75621 17.3333 6.66667 17.2438 6.66667 17.1333V14.8666C6.66667 14.7562 6.75621 14.6666 6.86667 14.6666H10.44L12.9919 12.1147ZM22 16C22 13.7556 20.77 11.8127 18.9522 10.779C18.8229 10.7056 18.6667 10.8016 18.6667 10.9502V21.0383C18.6667 21.1865 18.822 21.2826 18.9512 21.21C20.7696 20.188 22 18.2448 22 16ZM19.8716 4.64741C19.2642 4.44065 18.6667 4.91741 18.6667 5.559V6.30755C18.6667 6.74998 18.9596 7.13467 19.3722 7.29461C22.8586 8.64635 25.3333 12.0358 25.3333 16C25.3333 19.9641 22.8586 23.3536 19.3722 24.7053C18.9596 24.8653 18.6667 25.25 18.6667 25.6924V26.441C18.6667 27.0825 19.2642 27.5593 19.8716 27.3525C24.6014 25.7424 28 21.269 28 16C28 10.7309 24.6014 6.25758 19.8716 4.64741Z" fill="black"/>
</svg>
