<svg width="32" height="32" viewBox="0 0 32 32" fill="none" xmlns="http://www.w3.org/2000/svg">
<path d="M8 21.1051C8 22.3213 9.3714 23.0319 10.365 22.3306L17.5973 17.2255C18.4439 16.6278 18.4439 15.3722 17.5973 14.7745L10.365 9.66943C9.3714 8.96805 8 9.67865 8 10.8949V21.1051ZM10.6667 13.9189C10.6667 13.5945 11.0325 13.405 11.2974 13.5922L14.2441 15.6733C14.4697 15.8326 14.4697 16.1674 14.2441 16.3267L11.2974 18.4078C11.0325 18.595 10.6667 18.4055 10.6667 18.0811V13.9189ZM21.3333 9C21.3333 8.44772 21.781 8 22.3333 8H23C23.5523 8 24 8.44772 24 9V23C24 23.5523 23.5523 24 23 24H22.3333C21.781 24 21.3333 23.5523 21.3333 23V9Z" fill="black"/>
</svg>
