<svg width="31" height="30" viewBox="0 0 31 30" fill="none" xmlns="http://www.w3.org/2000/svg">
<g clip-path="url(#clip0_245_276)">
<path d="M30.4857 15.2807C30.4857 14.0516 30.3836 13.1547 30.1627 12.2245H15.7988V17.772H24.2301C24.0602 19.1507 23.1423 21.2268 21.1024 22.622L21.0738 22.8077L25.6154 26.2454L25.93 26.2761C28.8198 23.6684 30.4857 19.8316 30.4857 15.2807Z" fill="#4285F4"/>
<path d="M15.7988 29.897C19.9295 29.897 23.3972 28.5681 25.93 26.2761L21.1024 22.622C19.8105 23.5023 18.0766 24.1168 15.7988 24.1168C11.7532 24.1168 8.31945 21.5092 7.09543 17.905L6.91602 17.9199L2.19359 21.4909L2.13184 21.6586C4.64762 26.5418 9.81523 29.897 15.7988 29.897Z" fill="#34A853"/>
<path d="M7.09543 17.9049C6.77246 16.9748 6.58555 15.9782 6.58555 14.9484C6.58555 13.9186 6.77246 12.9221 7.07844 11.992L7.06988 11.7939L2.28828 8.16547L2.13184 8.23818C1.09496 10.2646 0.5 12.5401 0.5 14.9484C0.5 17.3568 1.09496 19.6322 2.13184 21.6586L7.09543 17.9049Z" fill="#FBBC05"/>
<path d="M15.7988 5.78004C18.6716 5.78004 20.6094 6.99252 21.7143 8.00576L26.032 3.8866C23.3803 1.47824 19.9295 0 15.7988 0C9.81523 0 4.64762 3.35508 2.13184 8.2382L7.07844 11.992C8.31945 8.38775 11.7532 5.78004 15.7988 5.78004Z" fill="#EB4335"/>
</g>
<defs>
<clipPath id="clip0_245_276">
<rect width="30" height="30" fill="white" transform="translate(0.5)"/>
</clipPath>
</defs>
</svg>
