<svg width="203" height="154" viewBox="0 0 203 154" fill="none" xmlns="http://www.w3.org/2000/svg">
<g id="Frame 181">
<g id="Group 959">
<g id="Group 955">
<path id="Rectangle 14" d="M15.5486 42.8379C14.901 40.9097 15.9391 38.8215 17.8674 38.1739L97.2614 11.5087C99.1897 10.8611 101.278 11.8992 101.926 13.8275L136.714 117.407C137.361 119.335 136.323 121.424 134.395 122.071L55.0008 148.736C53.0725 149.384 50.9843 148.346 50.3367 146.417L15.5486 42.8379Z" fill="#4C37EE"/>
<path id="Rectangle 13" d="M6.43728 38.2823C5.78965 36.354 6.82782 34.2658 8.75609 33.6182L88.1501 6.95304C90.0784 6.30541 92.1666 7.34358 92.8142 9.27185L127.602 112.851C128.25 114.78 127.212 116.868 125.283 117.515L45.8894 144.181C43.9612 144.828 41.873 143.79 41.2254 141.862L6.43728 38.2823Z" fill="#23FFCA"/>
<path id="Rectangle 13 (Stroke)" fill-rule="evenodd" clip-rule="evenodd" d="M7.58347 30.1262L86.9775 3.46101C90.834 2.16576 95.0104 4.24209 96.3056 8.09863L131.094 111.678C132.389 115.535 130.313 119.711 126.456 121.006L47.0621 147.672C43.2055 148.967 39.0292 146.89 37.7339 143.034L2.94585 39.4543C1.65059 35.5978 3.72693 31.4214 7.58347 30.1262ZM8.7561 33.6176C6.82783 34.2652 5.78966 36.3534 6.43729 38.2817L41.2254 141.861C41.873 143.79 43.9612 144.828 45.8895 144.18L125.283 117.515C127.212 116.867 128.25 114.779 127.602 112.851L92.8142 9.27126C92.1666 7.34299 90.0784 6.30483 88.1501 6.95245L8.7561 33.6176Z" fill="#4C37EE"/>
<g id="Vector">
<path fill-rule="evenodd" clip-rule="evenodd" d="M30.2125 53.3251C29.8887 52.361 30.4078 51.3169 31.3719 50.9931L78.6633 35.1099C79.6274 34.7861 80.6715 35.3051 80.9953 36.2693C81.3192 37.2334 80.8001 38.2775 79.8359 38.6013L32.5446 54.4845C31.5804 54.8083 30.5364 54.2893 30.2125 53.3251Z" fill="#4C37EE"/>
<path fill-rule="evenodd" clip-rule="evenodd" d="M33.9835 64.5543C33.6597 63.5901 34.1788 62.546 35.1429 62.2222L82.4343 46.339C83.3984 46.0152 84.4425 46.5343 84.7663 47.4984C85.0901 48.4626 84.571 49.5067 83.6069 49.8305L36.3155 65.7137C35.3514 66.0375 34.3073 65.5184 33.9835 64.5543Z" fill="#4C37EE"/>
<path fill-rule="evenodd" clip-rule="evenodd" d="M37.7558 75.7836C37.432 74.8195 37.9511 73.7754 38.9152 73.4516L86.2066 57.5684C87.1707 57.2446 88.2148 57.7637 88.5386 58.7278C88.8624 59.6919 88.3433 60.736 87.3792 61.0598L40.0878 76.943C39.1237 77.2669 38.0796 76.7478 37.7558 75.7836Z" fill="#4C37EE"/>
<path fill-rule="evenodd" clip-rule="evenodd" d="M41.5268 87.0126C41.203 86.0484 41.7221 85.0043 42.6862 84.6805L89.9776 68.7973C90.9417 68.4735 91.9858 68.9926 92.3096 69.9567C92.6334 70.9209 92.1143 71.9649 91.1502 72.2888L43.8588 88.172C42.8947 88.4958 41.8506 87.9767 41.5268 87.0126Z" fill="#4C37EE"/>
<path fill-rule="evenodd" clip-rule="evenodd" d="M45.2978 98.2413C44.974 97.2771 45.493 96.233 46.4572 95.9092L93.7485 80.026C94.7127 79.7022 95.7568 80.2213 96.0806 81.1854C96.4044 82.1495 95.8853 83.1936 94.9212 83.5174L47.6298 99.4007C46.6657 99.7245 45.6216 99.2054 45.2978 98.2413Z" fill="#4C37EE"/>
<path fill-rule="evenodd" clip-rule="evenodd" d="M71.6526 101.87C71.977 102.834 71.4586 103.879 70.4947 104.203L51.4019 110.629C50.438 110.954 49.3936 110.435 49.0691 109.471C48.7447 108.508 49.2631 107.463 50.227 107.139L69.3198 100.712C70.2837 100.388 71.3281 100.906 71.6526 101.87Z" fill="#4C37EE"/>
</g>
</g>
<g id="Group 956">
<path id="Rectangle 14_2" d="M109.007 13.7781C109.543 11.8158 111.568 10.6595 113.531 11.1954L194.324 33.2606C196.286 33.7965 197.442 35.8217 196.907 37.7839L168.12 143.189C167.584 145.151 165.559 146.308 163.596 145.772L82.803 123.707C80.8408 123.171 79.6845 121.146 80.2204 119.183L109.007 13.7781Z" fill="#23FFCA"/>
<path id="Rectangle 14 (Stroke)" fill-rule="evenodd" clip-rule="evenodd" d="M114.5 7.64271L195.294 29.7079C199.218 30.7797 201.531 34.83 200.459 38.7545L171.672 144.16C170.601 148.084 166.55 150.397 162.626 149.325L81.8323 127.26C77.9078 126.188 75.5952 122.138 76.667 118.213L105.454 12.808C106.526 8.88347 110.576 6.5709 114.5 7.64271ZM113.53 11.1957C111.568 10.6598 109.543 11.8161 109.007 13.7783L80.22 119.184C79.6841 121.146 80.8404 123.171 82.8027 123.707L163.596 145.772C165.558 146.308 167.583 145.152 168.119 143.189L196.906 37.7842C197.442 35.8219 196.286 33.7968 194.324 33.2609L113.53 11.1957Z" fill="#4C37EE"/>
<g id="Group 954">
<path id="Vector 579 (Stroke)" fill-rule="evenodd" clip-rule="evenodd" d="M148.416 105.722C149.128 105.924 149.65 106.531 149.742 107.264L152.016 125.351C152.143 126.36 151.428 127.281 150.419 127.408C149.41 127.534 148.489 126.819 148.362 125.81L146.63 112.035L137.845 122.97C137.208 123.763 136.049 123.89 135.256 123.253C134.463 122.616 134.337 121.457 134.974 120.664L146.479 106.341C146.942 105.765 147.705 105.521 148.416 105.722Z" fill="#4C37EE"/>
<path id="Vector 580 (Stroke)" fill-rule="evenodd" clip-rule="evenodd" d="M139.76 115.423C140.028 114.442 141.04 113.864 142.022 114.132L149.706 116.231C150.687 116.499 151.266 117.511 150.998 118.492C150.73 119.473 149.717 120.052 148.736 119.784L141.051 117.685C140.07 117.417 139.492 116.404 139.76 115.423Z" fill="#4C37EE"/>
<path id="Vector 581 (Stroke)" fill-rule="evenodd" clip-rule="evenodd" d="M159.46 115.62C160.441 115.888 161.019 116.9 160.751 117.881L159.304 123.181C159.036 124.162 158.023 124.74 157.042 124.472C156.061 124.205 155.483 123.192 155.751 122.211L157.198 116.911C157.466 115.93 158.479 115.352 159.46 115.62Z" fill="#4C37EE"/>
<path id="Vector 582 (Stroke)" fill-rule="evenodd" clip-rule="evenodd" d="M162.677 121.255C162.409 122.236 161.396 122.814 160.415 122.546L155.115 121.098C154.134 120.83 153.556 119.818 153.824 118.837C154.092 117.856 155.105 117.277 156.086 117.545L161.386 118.993C162.367 119.261 162.945 120.273 162.677 121.255Z" fill="#4C37EE"/>
</g>
<path id="Union" d="M162.676 72.4188C164.282 71.5022 164.84 69.4577 163.923 67.8523C163.007 66.2469 160.962 65.6886 159.357 66.6052L139.681 77.8391C137.915 78.8477 135.665 78.2333 134.657 76.4668L128.359 65.4371C127.443 63.8317 125.398 63.2734 123.793 64.19C122.187 65.1066 121.629 67.1511 122.546 68.7565L130.667 82.9807C130.668 82.9829 130.667 82.9857 130.665 82.9869C130.663 82.9882 130.662 82.991 130.664 82.9932L133.978 88.7989C133.98 88.8011 133.982 88.8018 133.985 88.8006L133.985 88.8005C133.987 88.7993 133.99 88.8001 133.991 88.8022C133.992 88.8043 133.995 88.8051 133.997 88.8039L139.803 85.4889C139.805 85.4877 139.806 85.485 139.804 85.4828C139.803 85.4807 139.804 85.478 139.806 85.4767L162.676 72.4188Z" fill="#23FFCA"/>
<path id="Union (Stroke)" fill-rule="evenodd" clip-rule="evenodd" d="M137.855 74.6405L157.531 63.4066C160.903 61.4814 165.197 62.6541 167.122 66.026C169.047 69.3979 167.874 73.692 164.503 75.6172L141.849 88.5512C141.778 88.5988 141.705 88.6442 141.629 88.6873L135.823 92.0022C134.946 92.5033 133.949 92.6043 133.044 92.3628C132.12 92.1197 131.291 91.52 130.78 90.625L127.465 84.8193C127.422 84.7429 127.381 84.6656 127.343 84.5876L119.347 70.5826C117.422 67.2107 118.595 62.9166 121.967 60.9914C125.338 59.0662 129.633 60.2389 131.558 63.6108L137.855 74.6405ZM163.924 67.8522C164.84 69.4576 164.282 71.5021 162.676 72.4187L139.806 85.4766C139.804 85.4779 139.803 85.4806 139.805 85.4827C139.805 85.4835 139.805 85.4844 139.805 85.4852C139.805 85.4867 139.804 85.4881 139.803 85.4888L133.997 88.8038C133.995 88.805 133.992 88.8042 133.991 88.8021C133.99 88.8 133.987 88.7992 133.985 88.8004L133.985 88.8005C133.983 88.8017 133.98 88.801 133.979 88.7988L130.664 82.9931C130.662 82.9909 130.663 82.9881 130.665 82.9868C130.668 82.9856 130.668 82.9828 130.667 82.9806L122.546 68.7564C121.629 67.151 122.187 65.1065 123.793 64.1899C125.398 63.2733 127.443 63.8316 128.359 65.437L134.657 76.4667C135.665 78.2332 137.915 78.8476 139.682 77.839L159.357 66.6051C160.962 65.6885 163.007 66.2468 163.924 67.8522Z" fill="#4C37EE"/>
</g>
</g>
</g>
</svg>
