<svg width="476" height="476" viewBox="0 0 476 476" fill="none" xmlns="http://www.w3.org/2000/svg">
<path d="M215.937 183.396C241.446 183.396 262.125 204.075 262.125 229.585V310.379C262.125 335.888 241.446 356.567 215.937 356.567H166.364L137.276 392.473C135.261 394.96 131.24 393.535 131.24 390.335V356.567H131.115C105.606 356.567 84.9268 335.888 84.9268 310.379V229.585C84.9268 204.075 105.606 183.396 131.115 183.396H215.937Z" fill="#3825C2"/>
<path d="M266.536 105.594C241.027 105.594 220.348 126.273 220.348 151.783V276.876C220.348 302.385 241.027 323.064 266.536 323.064H326.891L365.333 370.517C367.348 373.004 371.369 371.579 371.369 368.379V323.064H371.493C397.002 323.064 417.682 302.385 417.682 276.876V151.783C417.682 126.273 397.002 105.594 371.493 105.594H266.536Z" fill="#3825C2"/>
<path fill-rule="evenodd" clip-rule="evenodd" d="M194.752 170.133C221.016 170.133 242.308 191.424 242.308 217.688V295.748C242.308 322.013 221.016 343.304 194.752 343.304H146.546L111.421 386.661V343.288C85.7315 342.629 65.109 321.597 65.109 295.748V217.689C65.109 191.424 86.4004 170.133 112.665 170.133H194.752Z" fill="#23FFCA"/>
<path fill-rule="evenodd" clip-rule="evenodd" d="M146.546 343.304H194.752C221.016 343.304 242.308 322.013 242.308 295.749V217.689C242.308 191.424 221.016 170.133 194.752 170.133H112.665C86.4007 170.133 65.1093 191.424 65.1093 217.689V295.749C65.1093 321.597 85.7318 342.629 111.421 343.288V386.661L146.546 343.304ZM104.628 349.508C78.421 345.622 58.3156 323.034 58.3156 295.749V217.689C58.3156 187.672 82.6487 163.339 112.665 163.339H194.752C224.769 163.339 249.102 187.672 249.102 217.689V295.749C249.102 325.765 224.769 350.098 194.752 350.098H149.785L116.7 390.938C114.889 393.174 111.865 394.026 109.153 393.065C106.44 392.104 104.628 389.539 104.628 386.661V349.508Z" fill="#3825C2"/>
<path fill-rule="evenodd" clip-rule="evenodd" d="M68.8164 218.945C68.8164 194.557 88.587 174.786 112.975 174.786H194.441C218.829 174.786 238.6 194.557 238.6 218.945V295.112C238.6 319.5 218.829 339.271 194.441 339.271H145.77C143.894 339.271 142.374 337.75 142.374 335.874C142.374 333.998 143.894 332.477 145.77 332.477H194.441C215.077 332.477 231.806 315.748 231.806 295.112V218.945C231.806 198.309 215.077 181.58 194.441 181.58H112.975C92.3391 181.58 75.6101 198.309 75.6101 218.945V295.112C75.6101 315.748 92.3391 332.477 112.975 332.477H116.3C118.176 332.477 119.696 333.998 119.696 335.874C119.696 337.75 118.176 339.271 116.3 339.271H112.975C88.587 339.271 68.8164 319.5 68.8164 295.112V218.945Z" fill="#3825C2"/>
<path fill-rule="evenodd" clip-rule="evenodd" d="M92.5488 243.157C92.5488 240.343 94.8301 238.061 97.6441 238.061H139.567C142.381 238.061 144.662 240.343 144.662 243.157C144.662 245.971 142.381 248.252 139.567 248.252H97.6441C94.8301 248.252 92.5488 245.971 92.5488 243.157Z" fill="#3825C2"/>
<path fill-rule="evenodd" clip-rule="evenodd" d="M92.5488 210.938C92.5488 208.124 94.8301 205.843 97.6441 205.843H196.429C199.243 205.843 201.524 208.124 201.524 210.938C201.524 213.752 199.243 216.033 196.429 216.033H97.6441C94.8301 216.033 92.5488 213.752 92.5488 210.938Z" fill="#3825C2"/>
<path fill-rule="evenodd" clip-rule="evenodd" d="M92.5488 273.361C92.5488 270.547 94.8301 268.266 97.6441 268.266H115.085C117.899 268.266 120.18 270.547 120.18 273.361C120.18 276.175 117.899 278.456 115.085 278.456H97.6441C94.8301 278.456 92.5488 276.175 92.5488 273.361Z" fill="#3825C2"/>
<path fill-rule="evenodd" clip-rule="evenodd" d="M241.533 89.0544C215.269 89.0544 193.978 110.346 193.978 136.61V258.969C193.978 285.233 215.269 306.525 241.533 306.525H300.522L345.001 361.428V306.509C370.69 305.849 391.312 284.817 391.312 258.969V136.61C391.312 110.346 370.02 89.0544 343.756 89.0544H241.533Z" fill="#23FFCA"/>
<path fill-rule="evenodd" clip-rule="evenodd" d="M300.522 306.525H241.533C215.269 306.525 193.977 285.233 193.977 258.969V136.61C193.977 110.346 215.269 89.0544 241.533 89.0544H343.756C370.02 89.0544 391.311 110.346 391.311 136.61V258.969C391.311 284.817 370.689 305.849 345 306.509V361.428L300.522 306.525ZM351.794 312.728C378 308.842 398.105 286.254 398.105 258.969V136.61C398.105 106.594 373.772 82.2607 343.756 82.2607H241.533C211.517 82.2607 187.184 106.594 187.184 136.61V258.969C187.184 288.985 211.517 313.318 241.533 313.318H297.282L339.722 365.704C341.533 367.94 344.556 368.792 347.269 367.831C349.981 366.871 351.794 364.305 351.794 361.428V312.728Z" fill="#3825C2"/>
<path fill-rule="evenodd" clip-rule="evenodd" d="M198.266 138.83C198.266 114.442 218.036 94.6711 242.424 94.6711H342.365C366.754 94.6711 386.524 114.442 386.524 138.83V255.75C386.524 280.138 366.754 299.909 342.365 299.909H341.167C339.291 299.909 337.771 298.388 337.771 296.512C337.771 294.636 339.291 293.115 341.167 293.115H342.365C363.002 293.115 379.73 276.386 379.73 255.75V138.83C379.73 118.194 363.002 101.465 342.365 101.465H242.424C221.788 101.465 205.059 118.194 205.059 138.83V255.75C205.059 276.386 221.788 293.115 242.425 293.115H303.267C305.143 293.115 306.664 294.636 306.664 296.512C306.664 298.388 305.143 299.909 303.267 299.909H242.425C218.036 299.909 198.266 280.138 198.266 255.75V138.83Z" fill="#3825C2"/>
<path fill-rule="evenodd" clip-rule="evenodd" d="M229.805 207.735C229.805 203.983 232.847 200.941 236.599 200.941H348.735C352.487 200.941 355.529 203.983 355.529 207.735C355.529 211.487 352.487 214.528 348.735 214.528H236.599C232.847 214.528 229.805 211.487 229.805 207.735Z" fill="#3825C2"/>
<path fill-rule="evenodd" clip-rule="evenodd" d="M229.805 172.433C229.805 168.681 232.847 165.64 236.599 165.64H348.735C352.487 165.64 355.529 168.681 355.529 172.433C355.529 176.185 352.487 179.227 348.735 179.227H236.599C232.847 179.227 229.805 176.185 229.805 172.433Z" fill="#3825C2"/>
<path fill-rule="evenodd" clip-rule="evenodd" d="M229.805 138.469C229.805 134.717 232.846 131.675 236.598 131.675H348.735C352.487 131.675 355.528 134.717 355.528 138.469C355.528 142.221 352.487 145.263 348.735 145.263H236.598C232.846 145.263 229.805 142.221 229.805 138.469Z" fill="#3825C2"/>
<path fill-rule="evenodd" clip-rule="evenodd" d="M229.805 240.825C229.805 237.073 232.847 234.032 236.599 234.032H297.473C301.225 234.032 304.267 237.073 304.267 240.825C304.267 244.577 301.225 247.619 297.473 247.619H236.599C232.847 247.619 229.805 244.577 229.805 240.825Z" fill="#3825C2"/>
</svg>
