<svg width="476" height="476" viewBox="0 0 476 476" fill="none" xmlns="http://www.w3.org/2000/svg">
<path d="M64.2898 167.309C62.982 163.416 65.0785 159.199 68.9723 157.891L229.297 104.044C233.191 102.737 237.408 104.833 238.716 108.727L308.965 317.891C310.273 321.785 308.177 326.002 304.283 327.31L143.958 381.156C140.064 382.464 135.847 380.367 134.539 376.474L64.2898 167.309Z" fill="#3825C2"/>
<path d="M45.8904 158.11C44.5826 154.216 46.6791 149.999 50.5729 148.691L210.898 94.8447C214.792 93.5369 219.009 95.6333 220.316 99.5272L290.566 308.691C291.874 312.585 289.777 316.802 285.883 318.11L125.558 371.956C121.665 373.264 117.448 371.168 116.14 367.274L45.8904 158.11Z" fill="#23FFCA"/>
<path fill-rule="evenodd" clip-rule="evenodd" d="M48.2054 141.64L208.53 87.7935C216.318 85.178 224.752 89.3708 227.367 97.1586L297.617 306.323C300.232 314.11 296.04 322.544 288.252 325.16L127.927 379.006C120.139 381.622 111.706 377.429 109.09 369.641L38.8404 160.477C36.2248 152.689 40.4177 144.256 48.2054 141.64ZM50.5734 148.691C46.6795 149.998 44.5831 154.215 45.8909 158.109L116.14 367.273C117.448 371.167 121.665 373.263 125.559 371.956L285.884 318.109C289.778 316.801 291.874 312.585 290.566 308.691L220.317 99.5265C219.009 95.6327 214.792 93.5362 210.898 94.844L50.5734 148.691Z" fill="#3825C2"/>
<path fill-rule="evenodd" clip-rule="evenodd" d="M93.9016 188.486C93.2477 186.539 94.2959 184.431 96.2428 183.777L191.741 151.703C193.688 151.049 195.796 152.097 196.45 154.044C197.104 155.991 196.056 158.099 194.109 158.753L98.6108 190.827C96.6638 191.481 94.5554 190.433 93.9016 188.486Z" fill="#3825C2"/>
<path fill-rule="evenodd" clip-rule="evenodd" d="M101.516 211.162C100.863 209.215 101.911 207.106 103.858 206.452L199.356 174.379C201.303 173.725 203.411 174.773 204.065 176.72C204.719 178.667 203.671 180.775 201.724 181.429L106.226 213.503C104.279 214.157 102.17 213.109 101.516 211.162Z" fill="#3825C2"/>
<path fill-rule="evenodd" clip-rule="evenodd" d="M109.134 233.838C108.48 231.891 109.528 229.782 111.475 229.129L206.974 197.055C208.92 196.401 211.029 197.449 211.683 199.396C212.337 201.343 211.288 203.451 209.342 204.105L113.843 236.179C111.896 236.833 109.788 235.785 109.134 233.838Z" fill="#3825C2"/>
<path fill-rule="evenodd" clip-rule="evenodd" d="M116.749 256.513C116.095 254.566 117.143 252.458 119.09 251.804L214.589 219.73C216.535 219.076 218.644 220.124 219.298 222.071C219.952 224.018 218.903 226.126 216.956 226.78L121.458 258.854C119.511 259.508 117.403 258.46 116.749 256.513Z" fill="#3825C2"/>
<path fill-rule="evenodd" clip-rule="evenodd" d="M124.364 279.188C123.71 277.241 124.758 275.132 126.705 274.479L222.203 242.405C224.15 241.751 226.259 242.799 226.913 244.746C227.567 246.693 226.518 248.801 224.571 249.455L129.073 281.529C127.126 282.183 125.018 281.135 124.364 279.188Z" fill="#3825C2"/>
<path fill-rule="evenodd" clip-rule="evenodd" d="M177.584 286.516C178.239 288.462 177.192 290.571 175.246 291.227L136.69 304.204C134.744 304.859 132.635 303.812 131.98 301.866C131.325 299.919 132.371 297.81 134.318 297.155L172.873 284.178C174.82 283.522 176.929 284.569 177.584 286.516Z" fill="#3825C2"/>
<path d="M253.015 108.628C254.097 104.665 258.187 102.33 262.149 103.412L425.3 147.97C429.263 149.052 431.598 153.141 430.515 157.104L372.385 369.955C371.302 373.917 367.213 376.252 363.25 375.17L200.1 330.613C196.137 329.53 193.802 325.441 194.884 321.478L253.015 108.628Z" fill="#23FFCA"/>
<path fill-rule="evenodd" clip-rule="evenodd" d="M264.109 96.2377L427.26 140.795C435.185 142.96 439.855 151.139 437.691 159.064L379.56 371.914C377.395 379.839 369.216 384.509 361.291 382.345L198.141 337.788C190.216 335.623 185.546 327.444 187.71 319.519L245.841 106.668C248.005 98.7433 256.184 94.0734 264.109 96.2377ZM262.15 103.412C258.187 102.33 254.098 104.665 253.016 108.628L194.885 321.479C193.803 325.441 196.138 329.531 200.1 330.613L363.251 375.17C367.213 376.252 371.303 373.917 372.385 369.955L430.516 157.104C431.598 153.142 429.263 149.052 425.301 147.97L262.15 103.412Z" fill="#3825C2"/>
<path fill-rule="evenodd" clip-rule="evenodd" d="M332.597 294.296C334.034 294.702 335.088 295.929 335.274 297.41L339.867 333.932C340.123 335.97 338.679 337.83 336.641 338.086C334.603 338.342 332.744 336.898 332.487 334.86L328.989 307.043L311.25 329.126C309.964 330.727 307.624 330.982 306.022 329.696C304.421 328.41 304.166 326.069 305.452 324.468L328.685 295.545C329.62 294.381 331.16 293.889 332.597 294.296Z" fill="#3825C2"/>
<path fill-rule="evenodd" clip-rule="evenodd" d="M315.116 313.886C315.657 311.905 317.702 310.737 319.683 311.278L335.201 315.516C337.183 316.058 338.35 318.102 337.809 320.084C337.268 322.065 335.223 323.232 333.242 322.691L317.724 318.453C315.742 317.912 314.575 315.867 315.116 313.886Z" fill="#3825C2"/>
<path fill-rule="evenodd" clip-rule="evenodd" d="M354.898 314.282C356.879 314.824 358.047 316.868 357.506 318.85L354.583 329.552C354.042 331.533 351.997 332.701 350.016 332.159C348.034 331.618 346.867 329.574 347.408 327.592L350.331 316.89C350.872 314.909 352.917 313.741 354.898 314.282Z" fill="#3825C2"/>
<path fill-rule="evenodd" clip-rule="evenodd" d="M361.394 325.661C360.853 327.643 358.808 328.81 356.827 328.269L346.125 325.346C344.144 324.805 342.976 322.76 343.517 320.779C344.058 318.798 346.103 317.63 348.084 318.171L358.787 321.094C360.768 321.635 361.935 323.68 361.394 325.661Z" fill="#3825C2"/>
<path d="M361.394 227.044C364.636 225.193 365.763 221.065 363.912 217.823C362.061 214.581 357.933 213.453 354.691 215.304L314.959 237.99C311.392 240.026 306.849 238.786 304.812 235.219L292.095 212.946C290.244 209.704 286.116 208.576 282.874 210.427C279.632 212.278 278.504 216.407 280.355 219.649L296.756 248.372C296.758 248.377 296.757 248.382 296.752 248.385C296.748 248.387 296.746 248.393 296.749 248.398L303.443 260.121C303.445 260.126 303.451 260.127 303.455 260.125L303.455 260.125C303.46 260.122 303.465 260.124 303.468 260.128C303.47 260.132 303.476 260.134 303.48 260.131L315.204 253.437C315.208 253.435 315.21 253.429 315.207 253.425C315.205 253.421 315.206 253.415 315.211 253.413L361.394 227.044Z" fill="#23FFCA"/>
<path fill-rule="evenodd" clip-rule="evenodd" d="M311.271 231.531L351.003 208.846C357.812 204.958 366.484 207.326 370.371 214.135C374.259 220.944 371.891 229.616 365.082 233.503L319.337 259.622C319.193 259.718 319.045 259.809 318.892 259.896L307.168 266.59C305.396 267.602 303.383 267.806 301.556 267.319C299.691 266.828 298.016 265.617 296.984 263.809L290.29 252.086C290.202 251.931 290.12 251.775 290.044 251.618L273.897 223.337C270.009 216.528 272.377 207.856 279.186 203.969C285.995 200.081 294.667 202.449 298.554 209.258L311.271 231.531ZM363.912 217.823C365.763 221.065 364.636 225.193 361.394 227.044L315.211 253.413C315.207 253.415 315.205 253.421 315.208 253.425C315.209 253.427 315.209 253.429 315.209 253.43C315.209 253.433 315.207 253.436 315.204 253.438L303.48 260.132C303.476 260.134 303.47 260.133 303.468 260.128C303.465 260.124 303.46 260.122 303.456 260.125L303.455 260.125C303.451 260.128 303.445 260.126 303.443 260.122L296.749 248.398C296.746 248.393 296.748 248.388 296.752 248.385C296.757 248.383 296.758 248.377 296.756 248.373L280.356 219.649C278.505 216.407 279.632 212.278 282.874 210.427C286.116 208.576 290.245 209.704 292.096 212.946L304.813 235.219C306.849 238.786 311.392 240.027 314.959 237.99L354.691 215.305C357.933 213.454 362.061 214.581 363.912 217.823Z" fill="#3825C2"/>
</svg>
