<svg width="19" height="19" viewBox="0 0 19 19" fill="none" xmlns="http://www.w3.org/2000/svg">
<path d="M9.50033 4.67085C10.4187 4.67085 11.1628 5.41502 11.1628 6.33335C11.1628 7.25169 10.4187 7.99585 9.50033 7.99585C8.58199 7.99585 7.83782 7.25169 7.83782 6.33335C7.83782 5.41502 8.58199 4.67085 9.50033 4.67085ZM9.50033 11.7959C11.8516 11.7959 14.3295 12.9517 14.3295 13.4584V14.3292H4.67116V13.4584C4.67116 12.9517 7.14908 11.7959 9.50033 11.7959ZM9.50033 3.16669C7.75074 3.16669 6.33366 4.58377 6.33366 6.33335C6.33366 8.08294 7.75074 9.50002 9.50033 9.50002C11.2499 9.50002 12.667 8.08294 12.667 6.33335C12.667 4.58377 11.2499 3.16669 9.50033 3.16669ZM9.50033 10.2917C7.38658 10.2917 3.16699 11.3525 3.16699 13.4584V15.0417C3.16699 15.4771 3.52324 15.8334 3.95866 15.8334H15.042C15.4774 15.8334 15.8337 15.4771 15.8337 15.0417V13.4584C15.8337 11.3525 11.6141 10.2917 9.50033 10.2917Z" fill="#23FFCA"/>
</svg>
