<svg width="171" height="166" viewBox="0 0 171 166" fill="none" xmlns="http://www.w3.org/2000/svg">
<path id="Rectangle 85 (Stroke)" fill-rule="evenodd" clip-rule="evenodd" d="M0.816406 44.9453C0.816406 20.557 20.587 0.786377 44.9753 0.786377H126.441C150.829 0.786377 170.6 20.557 170.6 44.9453V121.112C170.6 145.5 150.829 165.271 126.441 165.271H77.7704C75.8943 165.271 74.3735 163.75 74.3735 161.874C74.3735 159.998 75.8943 158.477 77.7704 158.477H126.441C147.077 158.477 163.806 141.748 163.806 121.112V44.9453C163.806 24.309 147.077 7.58005 126.441 7.58005H44.9753C24.3391 7.58005 7.61008 24.3091 7.61008 44.9453V121.112C7.61008 141.748 24.3391 158.477 44.9753 158.477H48.2997C50.1757 158.477 51.6965 159.998 51.6965 161.874C51.6965 163.75 50.1757 165.271 48.2997 165.271H44.9753C20.587 165.271 0.816406 145.5 0.816406 121.112V44.9453Z" fill="#3825C2"/>
</svg>
