<svg width="25" height="24" viewBox="0 0 25 24" fill="none" xmlns="http://www.w3.org/2000/svg">
<path d="M16.4762 14.4716H15.6862L15.4062 14.2016C16.6062 12.8016 17.2262 10.8916 16.8862 8.86157C16.4162 6.08157 14.0962 3.86157 11.2962 3.52157C7.06621 3.00157 3.50621 6.56157 4.02621 10.7916C4.36621 13.5916 6.58621 15.9116 9.36621 16.3816C11.3962 16.7216 13.3062 16.1016 14.7062 14.9016L14.9762 15.1816V15.9716L19.2262 20.2216C19.6362 20.6316 20.3062 20.6316 20.7162 20.2216C21.1262 19.8116 21.1262 19.1416 20.7162 18.7316L16.4762 14.4716ZM10.4762 14.4716C7.98621 14.4716 5.97621 12.4616 5.97621 9.97157C5.97621 7.48157 7.98621 5.47157 10.4762 5.47157C12.9662 5.47157 14.9762 7.48157 14.9762 9.97157C14.9762 12.4616 12.9662 14.4716 10.4762 14.4716Z" fill="#FFFFF0"/>
</svg>
