<svg width="22" height="22" viewBox="0 0 22 22" fill="none" xmlns="http://www.w3.org/2000/svg">
<g id="star_half">
<path id="Vector" d="M18.1211 8.28446L13.8072 7.91012L12.1226 3.94381C11.8196 3.22185 10.7857 3.22185 10.4826 3.94381L8.79807 7.91903L4.49307 8.28446C3.70872 8.34685 3.38785 9.32729 3.98503 9.84425L7.25611 12.6786L6.27568 16.8856C6.09742 17.6521 6.92633 18.2582 7.60372 17.8482L11.3026 15.6199L15.0015 17.8571C15.6789 18.2671 16.5079 17.661 16.3296 16.8945L15.3492 12.6786L18.6202 9.84425C19.2174 9.32729 18.9055 8.34685 18.1211 8.28446ZM11.3026 13.9532V5.66403L12.8268 9.2649L16.7307 9.60359L13.7715 12.1706L14.6629 15.9853L11.3026 13.9532Z" fill="black"/>
</g>
</svg>
