<svg width="19" height="19" viewBox="0 0 19 19" fill="none" xmlns="http://www.w3.org/2000/svg">
<path d="M11.875 1.1875H7.125V2.77083H11.875V1.1875ZM8.70833 11.4792H10.2917V6.72917H8.70833V11.4792ZM15.0654 6.24625L16.1896 5.12208C15.8492 4.71833 15.4771 4.33833 15.0733 4.00583L13.9492 5.13C12.7221 4.14833 11.1783 3.5625 9.5 3.5625C5.56542 3.5625 2.375 6.75292 2.375 10.6875C2.375 14.6221 5.5575 17.8125 9.5 17.8125C13.4425 17.8125 16.625 14.6221 16.625 10.6875C16.625 9.00917 16.0392 7.46542 15.0654 6.24625ZM9.5 16.2292C6.43625 16.2292 3.95833 13.7513 3.95833 10.6875C3.95833 7.62375 6.43625 5.14583 9.5 5.14583C12.5638 5.14583 15.0417 7.62375 15.0417 10.6875C15.0417 13.7513 12.5638 16.2292 9.5 16.2292Z" fill="#23FFCA"/>
</svg>
